<?xml version="1.0" encoding="UTF-8" standalone="no"?>
<svg
   xmlns:dc="http://purl.org/dc/elements/1.1/"
   xmlns:cc="http://creativecommons.org/ns#"
   xmlns:rdf="http://www.w3.org/1999/02/22-rdf-syntax-ns#"
   xmlns:svg="http://www.w3.org/2000/svg"
   xmlns="http://www.w3.org/2000/svg"
   xmlns:sodipodi="http://sodipodi.sourceforge.net/DTD/sodipodi-0.dtd"
   xmlns:inkscape="http://www.inkscape.org/namespaces/inkscape"
   width="453.5433"
   height="340.15747"
   id="svg2"
   sodipodi:version="0.32"
   inkscape:version="1.0.2 (e86c870, 2021-01-15)"
   sodipodi:docname="draft-1.svg"
   version="1.0"
   viewBox="0 0 453.5433 340.15747">
  <defs
     id="defs4" />
  <sodipodi:namedview
     id="base"
     pagecolor="#ffffff"
     bordercolor="#666666"
     borderopacity="1.0"
     inkscape:pageopacity="0.0"
     inkscape:pageshadow="2"
     inkscape:zoom="1.540463"
     inkscape:cx="255.157"
     inkscape:cy="144.11252"
     inkscape:document-units="mm"
     inkscape:current-layer="g130"
     inkscape:window-width="1366"
     inkscape:window-height="707"
     inkscape:window-x="0"
     inkscape:window-y="0"
     width="12.8cm"
     height="9.6cm"
     units="cm"
     showgrid="true"
     grid_units="mm"
     inkscape:object-paths="false"
     inkscape:grid-points="true"
     inkscape:grid-bbox="true"
     inkscape:guide-points="true"
     showguides="true"
     inkscape:guide-bbox="true"
     inkscape:document-rotation="0"
     inkscape:window-maximized="1">
    <sodipodi:guide
       orientation="vertical"
       position="56.476527"
       id="guide3573" />
    <sodipodi:guide
       orientation="horizontal"
       position="11.035643"
       id="guide3579" />
    <sodipodi:guide
       orientation="horizontal"
       position="24.018753"
       id="guide3886" />
    <sodipodi:guide
       orientation="horizontal"
       position="285.62841"
       id="guide3988" />
    <sodipodi:guide
       orientation="horizontal"
       position="303.15561"
       id="guide4081" />
    <inkscape:grid
       id="GridFromPre046Settings"
       type="xygrid"
       originx="0"
       originy="0"
       spacingx="7.5590551"
       spacingy="7.5590551"
       color="#3f3fff"
       empcolor="#3f3fff"
       opacity="0.15"
       empopacity="0.38"
       empspacing="5" />
  </sodipodi:namedview>
  <metadata
     id="metadata7">
    <rdf:RDF>
      <cc:Work
         rdf:about="">
        <dc:format>image/svg+xml</dc:format>
        <dc:type
           rdf:resource="http://purl.org/dc/dcmitype/StillImage" />
        <dc:title />
      </cc:Work>
    </rdf:RDF>
  </metadata>
  <g
     inkscape:label="Layer 1"
     inkscape:groupmode="layer"
     id="layer1">
    <g
       id="g130"
       transform="matrix(0.31900571,0,0,0.28499803,78.503485,49.283955)">
      <g
         transform="matrix(0.21942329,0,0,-0.22897193,-210.13528,1367.265)"
         fill="#000000"
         stroke="none"
         id="g186">
        <path
           d="m 3748,5760 c -16,-17 -28,-42 -28,-55 0,-16 -6,-25 -15,-25 -17,0 -57,-20 -66,-34 -4,-5 -24,-12 -45,-15 -36,-6 -55,-33 -33,-47 13,-7 -1,-56 -20,-71 -14,-12 -14,-14 3,-28 16,-12 18,-19 8,-40 -6,-14 -7,-25 -2,-25 5,0 11,-8 14,-18 4,-10 21,-33 38,-51 26,-27 29,-34 17,-42 -8,-5 -24,-7 -36,-4 -12,3 -25,0 -29,-6 -4,-8 -9,-7 -15,2 -6,10 -9,11 -9,2 0,-19 -21,-16 -36,5 -13,16 -14,16 -20,-5 -6,-21 -34,-41 -34,-24 0,19 -32,20 -48,1 -22,-25 -75,-39 -66,-17 4,12 1,14 -17,10 -15,-4 -20,-3 -15,5 10,17 -10,15 -26,-3 -33,-37 -38,-45 -28,-45 8,0 8,-6 0,-20 -12,-22 -36,-27 -44,-7 -7,17 -38,-23 -31,-41 4,-11 -1,-13 -21,-8 -18,5 -24,3 -19,-5 7,-10 -10,-28 -26,-29 -4,0 -12,13 -19,29 -17,43 -45,64 -87,65 -21,1 -45,6 -55,10 -12,5 -18,1 -23,-15 -5,-14 -3,-25 3,-27 6,-2 4,-14 -5,-33 -12,-25 -13,-35 -3,-60 7,-16 22,-36 33,-44 17,-12 18,-17 7,-30 -7,-8 -21,-15 -32,-15 -15,0 -18,-5 -13,-20 6,-17 3,-20 -17,-16 -13,2 -32,7 -43,11 -19,6 -19,6 -1,-5 14,-10 15,-14 5,-20 -10,-7 -10,-12 2,-26 12,-16 12,-17 -3,-12 -11,5 -18,0 -21,-13 -6,-21 -37,-26 -37,-6 0,16 -29,19 -47,5 -7,-5 -17,-7 -22,-4 -6,4 -15,-3 -21,-14 -7,-13 -7,-20 0,-20 5,0 10,-9 10,-20 0,-11 5,-29 12,-40 10,-15 9,-22 -3,-37 -9,-10 -19,-25 -22,-34 -3,-10 -22,-19 -47,-23 -40,-6 -42,-8 -35,-34 4,-15 11,-29 16,-33 13,-8 -13,-57 -28,-52 -6,2 -17,-6 -24,-18 -9,-19 -9,-25 5,-35 15,-10 14,-14 -14,-37 -16,-14 -26,-29 -20,-32 15,-10 12,-35 -5,-35 -17,0 -20,-16 -5,-25 7,-4 7,-13 0,-26 -6,-11 -8,-24 -5,-29 3,-5 -3,-13 -12,-19 -12,-7 -13,-10 -4,-11 10,0 11,-3 2,-13 -6,-8 -9,-16 -6,-19 8,-8 -15,-108 -25,-108 -5,0 -11,9 -15,20 -3,11 -21,41 -38,67 -18,27 -38,60 -46,75 -7,14 -22,29 -32,31 -11,3 -19,12 -19,20 0,8 -13,17 -31,21 -29,6 -31,8 -25,39 4,20 3,27 -3,18 -5,-7 -13,-11 -19,-7 -6,3 -13,0 -16,-6 -5,-10 -7,-10 -12,0 -3,6 -12,12 -20,12 -8,0 -20,11 -26,25 -11,25 -43,34 -50,15 -5,-15 -88,-1 -88,15 0,6 -8,19 -18,28 -23,21 -61,11 -68,-18 -7,-27 -49,-39 -69,-19 -12,12 -15,11 -19,-4 -6,-18 -69,-45 -80,-34 -3,3 -6,13 -6,23 0,19 -25,33 -52,30 -10,-1 -18,3 -18,8 0,23 -29,9 -44,-21 -21,-42 -20,-63 5,-87 22,-20 19,-41 -7,-41 -8,0 -14,-5 -14,-11 0,-6 -7,-9 -15,-5 -10,3 -15,-1 -15,-12 -1,-27 -25,-53 -37,-41 -17,17 -35,0 -29,-27 5,-17 0,-31 -14,-46 -11,-12 -20,-32 -20,-44 0,-12 -4,-24 -9,-26 -5,-1 -11,-23 -14,-48 -3,-25 -6,-46 -6,-47 -2,-10 -27,1 -55,22 -35,27 -65,31 -96,15 -13,-7 -21,-7 -25,0 -10,16 -25,11 -25,-8 0,-11 -9,-29 -20,-42 -11,-13 -20,-27 -20,-32 0,-4 -11,-8 -25,-8 -17,0 -23,-4 -19,-14 4,-11 -4,-16 -28,-19 l -33,-4 34,-1 c 23,-1 32,-6 28,-15 -3,-8 4,-14 16,-15 12,0 23,-5 25,-11 2,-5 12,-19 23,-32 10,-12 19,-28 19,-35 0,-8 10,-14 23,-13 12,0 37,-2 56,-4 21,-3 47,3 72,17 34,18 41,19 49,6 5,-8 10,-30 10,-47 0,-18 5,-33 10,-33 6,0 10,-9 10,-20 0,-12 9,-30 19,-42 14,-15 18,-29 14,-49 -5,-28 2,-35 31,-30 15,3 36,-21 36,-40 0,-12 5,-16 15,-13 8,4 15,1 15,-5 0,-6 7,-11 15,-11 8,0 15,-6 15,-14 0,-7 -7,-19 -15,-26 -19,-16 -19,-38 0,-84 15,-35 18,-37 48,-31 36,8 67,32 67,52 0,19 27,28 45,13 8,-6 18,-9 24,-6 5,4 13,-3 16,-14 5,-16 10,-18 20,-10 14,12 65,-3 65,-20 0,-5 11,-17 25,-26 24,-16 27,-16 45,1 11,10 20,24 20,30 0,17 76,28 100,15 16,-8 22,-6 35,14 15,23 47,40 72,37 7,-1 20,10 29,24 9,14 24,25 34,25 10,0 22,9 25,20 3,11 12,20 19,20 7,0 19,12 27,28 7,15 28,48 46,75 17,26 35,56 38,67 16,50 36,7 39,-80 0,-31 6,-52 14,-55 7,-3 10,-10 7,-15 -4,-6 -1,-18 7,-27 10,-13 10,-17 1,-20 -19,-7 -16,-23 3,-23 12,0 15,-7 12,-24 -3,-16 3,-35 17,-52 20,-25 21,-30 8,-40 -12,-8 -13,-15 -4,-32 6,-12 17,-19 24,-17 18,7 41,-46 24,-57 -6,-4 -8,-8 -3,-8 5,0 2,-7 -5,-16 -11,-14 -10,-18 6,-30 10,-8 29,-14 42,-14 13,0 26,-8 30,-17 3,-10 13,-26 22,-36 12,-15 13,-22 3,-37 -7,-11 -12,-29 -12,-40 0,-11 -5,-20 -10,-20 -7,0 -7,-6 0,-20 6,-11 16,-17 25,-14 9,4 21,1 29,-5 11,-9 18,-8 30,5 19,18 46,12 46,-10 0,-10 6,-13 18,-9 14,5 15,3 5,-8 -15,-16 -17,-33 -3,-24 6,3 10,2 10,-4 0,-5 -6,-11 -12,-14 -7,-2 -10,-8 -6,-12 4,-4 14,-2 23,5 17,14 50,6 40,-10 -4,-6 7,-15 24,-21 33,-12 41,-33 17,-42 -25,-10 -49,-67 -38,-91 5,-11 7,-32 6,-46 -5,-38 9,-55 34,-41 11,6 37,11 57,11 31,0 40,6 67,44 29,42 58,52 58,20 0,-8 6,-11 17,-7 12,5 15,2 10,-10 -3,-9 -2,-17 4,-17 6,0 8,-4 5,-9 -3,-5 3,-11 14,-14 10,-3 20,-1 22,5 6,16 40,-4 35,-21 -2,-9 1,-22 7,-28 6,-7 17,-19 24,-28 7,-8 18,-15 25,-15 8,0 8,3 -1,9 -10,6 -6,11 17,19 36,13 91,-2 91,-24 0,-8 5,-14 10,-14 6,0 10,4 10,9 0,4 12,8 28,7 16,-1 26,-6 24,-13 -1,-7 5,-13 13,-13 8,0 15,5 15,10 0,9 37,8 60,0 3,-1 17,-1 32,0 40,2 43,-18 9,-51 -28,-27 -36,-40 -32,-61 0,-5 -6,-8 -14,-8 -13,0 -14,-4 -5,-21 9,-17 8,-25 -7,-41 -16,-18 -16,-21 -2,-31 21,-16 33,-55 22,-70 -18,-23 -9,-42 20,-42 15,-1 35,-8 45,-16 9,-8 34,-22 55,-32 24,-12 37,-25 37,-37 0,-11 14,-34 32,-50 l 32,-31 22,28 c 13,15 23,40 24,54 0,24 26,59 44,59 5,0 17,11 27,24 11,14 29,26 42,28 16,2 21,9 19,23 -2,11 -3,34 -2,50 4,67 -2,108 -20,129 -7,9 -9,16 -4,16 4,0 -8,14 -27,30 -28,26 -31,33 -19,41 8,5 23,7 32,5 10,-2 20,-1 23,3 2,5 18,8 35,9 16,0 46,6 65,13 27,10 38,10 47,1 7,-7 19,-12 27,-12 8,0 12,3 8,6 -8,8 25,44 35,38 4,-3 8,0 8,5 0,17 30,13 36,-4 4,-8 17,-15 29,-15 13,0 27,-5 30,-10 3,-5 11,-10 16,-10 6,0 8,4 4,9 -8,15 12,93 27,103 7,5 27,7 44,6 27,-3 30,-1 26,21 -3,15 -1,22 5,18 6,-4 21,7 34,23 13,16 26,30 29,30 3,0 13,-15 23,-32 10,-18 31,-41 47,-50 26,-15 34,-15 62,-4 17,8 48,11 69,9 l 38,-6 -10,34 c -5,19 -10,50 -11,69 -1,35 -32,74 -69,85 -23,8 -25,33 -4,41 8,4 15,11 15,18 0,16 56,76 71,76 6,0 9,8 6,20 -3,11 1,27 10,35 8,8 12,18 9,23 -2,4 -1,14 4,22 7,12 15,13 38,4 25,-10 32,-8 61,18 l 32,29 -21,33 c -11,19 -29,36 -41,39 -17,5 -19,11 -14,39 4,18 7,47 6,65 -1,22 4,33 17,37 9,3 23,16 31,27 11,19 11,23 0,30 -35,19 -47,37 -53,72 -4,23 -3,37 4,37 18,0 11,29 -10,40 -14,8 -20,21 -20,45 0,19 -5,35 -10,35 -6,0 -15,10 -20,23 -15,34 -33,60 -55,78 -11,9 -37,32 -58,51 l -39,34 60,49 c 33,28 70,69 82,92 11,24 25,45 31,48 5,4 9,19 9,35 0,19 8,34 22,45 20,13 21,18 10,35 -8,14 -9,26 -3,38 9,17 11,24 11,40 0,5 11,15 25,22 31,17 31,21 -2,55 -16,15 -29,39 -30,54 -1,14 -5,41 -9,59 -5,28 -3,34 14,39 12,3 30,21 42,40 17,30 18,36 6,49 -8,8 -19,14 -24,14 -6,0 -13,7 -16,15 -5,14 -9,14 -35,1 -26,-14 -30,-14 -45,3 -14,15 -14,20 -4,24 10,4 8,9 -5,17 -13,9 -17,19 -13,36 5,19 1,27 -19,36 -13,6 -27,19 -30,30 -4,10 -11,18 -16,18 -5,0 -9,5 -9,11 0,7 -8,18 -17,25 -19,15 -21,13 54,72 15,12 22,28 23,52 0,19 4,50 9,67 l 9,32 -55,-1 c -38,-1 -57,3 -63,13 -8,11 -13,12 -30,2 -11,-7 -25,-13 -32,-13 -13,0 -38,-44 -38,-67 0,-7 -7,-13 -15,-13 -8,0 -15,5 -15,10 0,6 -7,10 -15,10 -8,0 -14,5 -12,12 1,7 -5,12 -13,13 -8,0 -16,9 -19,20 -4,26 -21,36 -42,25 -22,-12 -54,22 -46,50 3,11 1,23 -5,26 -5,3 -8,15 -5,25 5,20 -7,26 -18,9 -3,-5 -17,-10 -31,-10 -15,0 -24,-6 -24,-15 0,-34 -69,-4 -82,36 -4,11 -10,11 -36,0 -24,-10 -35,-11 -46,-2 -7,6 -33,13 -57,15 -24,2 -46,5 -49,6 -3,1 -12,2 -20,1 -8,0 -22,4 -30,9 -13,9 -12,13 8,27 29,20 28,44 -3,73 -19,18 -38,23 -97,27 -40,3 -79,6 -87,9 -22,7 4,30 85,75 41,22 79,49 84,59 15,27 12,70 -3,70 -20,0 -47,33 -47,59 0,20 -37,81 -49,81 -3,0 -18,-14 -33,-30 z M 2000,4378 c 25,-6 81,-16 125,-22 79,-11 80,-12 98,-49 10,-20 39,-53 63,-73 44,-36 44,-36 44,-103 0,-50 6,-80 26,-121 23,-50 24,-59 15,-117 -7,-47 -18,-74 -41,-103 -18,-22 -37,-40 -43,-40 -16,0 -57,-41 -57,-57 0,-16 -58,-43 -93,-43 -13,0 -33,-9 -45,-20 -26,-25 -116,-28 -148,-5 -29,20 -81,27 -104,15 -17,-9 -23,-4 -45,41 -16,30 -38,57 -57,67 -68,38 -76,54 -125,250 -3,13 5,42 21,75 14,28 33,85 41,125 16,77 43,139 71,163 14,12 78,21 184,27 14,1 45,-4 70,-10 z m 507,-480 c -3,-7 -5,-2 -5,12 0,14 2,19 5,13 2,-7 2,-19 0,-25 z m 2217,-603 c 3,-8 1,-15 -4,-15 -6,0 -10,7 -10,15 0,8 2,15 4,15 2,0 6,-7 10,-15 z"
           id="path182" />
        <path
           d="m 2890,5070 c 0,-5 5,-10 11,-10 5,0 7,5 4,10 -3,6 -8,10 -11,10 -2,0 -4,-4 -4,-10 z"
           id="path184" />
      </g>
      <path
         style="fill:#a0a0a0;stroke:none;stroke-width:0.649155"
         d="m 274.1962,292.59904 c -1.08534,-1.15607 -2.12556,-2.54014 -2.31159,-3.07569 -0.40773,-1.17382 -7.71627,-5.19325 -9.4429,-5.19325 -1.76851,0 -2.09713,-0.57563 -1.31215,-2.29848 0.55539,-1.21893 0.42474,-1.97356 -0.65998,-3.812 -0.87029,-1.47503 -1.11039,-2.44181 -0.67349,-2.71183 0.37342,-0.23079 0.5554,-1.26138 0.4044,-2.2902 -0.18484,-1.25941 0.007,-1.8706 0.58676,-1.8706 0.47372,0 0.8613,-0.4973 0.8613,-1.10511 0,-0.60782 0.91501,-2.04916 2.03334,-3.20299 3.14184,-3.24155 2.29129,-4.24157 -3.48987,-4.10315 -2.59074,0.0621 -5.20041,-0.088 -5.79925,-0.3334 -0.59885,-0.24541 -1.76733,-0.35007 -2.59662,-0.23257 -0.8293,0.11749 -2.01903,-0.29758 -2.64384,-0.9224 -1.39752,-1.39752 -5.85288,-1.51966 -7.17582,-0.19672 -0.81963,0.81962 -1.11501,0.75226 -2.31841,-0.52871 -0.75852,-0.8074 -1.37912,-1.95011 -1.37912,-2.53934 0,-1.35453 -2.33161,-2.72017 -2.94625,-1.72565 -0.65218,1.05525 -2.89004,-1.24856 -2.4151,-2.48626 0.28548,-0.74395 0.11001,-0.91666 -0.63921,-0.62916 -0.59758,0.22932 -1.18352,0.003 -1.39064,-0.53645 -0.59218,-1.5432 -1.94919,-1.06942 -4.54184,1.58569 -1.82178,1.86568 -3.15993,2.61584 -5.1627,2.8942 -1.48693,0.20666 -3.28774,0.46093 -4.00182,0.56504 -1.11491,0.16256 -1.34582,-0.26921 -1.63462,-3.05648 -0.4003,-3.86329 0.33882,-6.59809 2.02748,-7.50183 1.7748,-0.94985 1.51323,-2.38029 -0.63877,-3.49313 -1.02784,-0.53152 -2.04882,-1.43552 -2.26884,-2.0089 -0.26827,-0.69907 -0.82881,-0.90642 -1.70156,-0.62942 -1.2772,0.40537 -1.65935,-0.37535 -1.34997,-2.7579 0.058,-0.44629 -0.22042,-0.81144 -0.6186,-0.81144 -0.39819,0 -1.17897,-0.45498 -1.73505,-1.01107 -0.61982,-0.61981 -1.41828,-0.82304 -2.06339,-0.52516 -0.98918,0.45674 -5.88149,0.4938 -6.32737,0.0479 -0.11261,-0.11261 0.26974,-1.68854 0.84968,-3.50206 1.02616,-3.20889 1.01553,-3.36026 -0.39653,-5.64502 -0.96445,-1.5605 -1.93577,-2.3477 -2.89684,-2.3477 -0.79523,0 -1.97686,-0.38827 -2.62586,-0.86284 -0.9964,-0.72858 -1.05762,-1.0915 -0.39346,-2.3325 1.08189,-2.02153 0.3147,-4.51728 -1.61402,-5.25058 -1.68221,-0.63957 -2.06632,-1.86851 -0.93699,-2.99783 0.4576,-0.4576 0.25328,-1.19473 -0.64915,-2.34198 -0.72431,-0.92082 -1.31693,-2.43146 -1.31693,-3.35699 0,-1.11948 -0.35256,-1.68279 -1.05322,-1.68279 -0.8626,0 -0.90695,-0.17624 -0.24509,-0.97373 0.64531,-0.77756 0.64269,-1.17307 -0.013,-1.96316 -0.45163,-0.54418 -0.64377,-1.16679 -0.42698,-1.38358 0.21679,-0.21679 -0.0337,-1.00503 -0.55665,-1.75165 -0.52293,-0.74661 -0.95079,-2.44194 -0.95079,-3.7674 0,-2.68115 -0.9689,-5.74021 -1.8181,-5.74021 -0.30355,0 -1.98121,2.25628 -3.72813,5.01395 -3.20337,5.05682 -7.40051,9.91663 -8.56444,9.91663 -0.34668,0 -1.41833,0.7303 -2.38145,1.62288 -0.96312,0.89259 -2.28092,1.62289 -2.92844,1.62289 -0.64753,0 -2.00016,0.64724 -3.00583,1.43831 -1.38761,1.09148 -2.73973,1.4502 -5.60748,1.48764 -3.46601,0.0452 -3.92939,0.22953 -5.59553,2.2253 l -1.81657,2.17596 -2.44747,-2.14891 c -1.68339,-1.47804 -3.09155,-2.14578 -4.51059,-2.1389 -1.13472,0.005 -2.25885,-0.29041 -2.49808,-0.65757 -0.23922,-0.36716 -0.82346,-0.75592 -1.29831,-0.8639 -0.47484,-0.10798 -1.63713,-0.37604 -2.58285,-0.59567 -1.43859,-0.3341 -1.86405,-0.0974 -2.60424,1.44895 -0.55664,1.16289 -1.72447,2.12384 -3.14917,2.59131 -2.69937,0.88571 -3.52158,0.38467 -4.56704,-2.7831 -0.62175,-1.88392 -0.57317,-2.45195 0.29137,-3.40726 1.55639,-1.71978 1.25795,-3.10985 -0.86987,-4.05171 -1.04907,-0.46436 -2.21128,-1.51127 -2.58271,-2.32646 -0.44333,-0.97301 -1.23759,-1.48216 -2.31212,-1.48216 -1.30919,0 -1.63681,-0.32191 -1.63681,-1.60826 0,-0.88454 -0.83154,-3.14847 -1.84788,-5.03096 -1.01633,-1.88248 -2.05198,-4.51814 -2.30146,-5.85703 -0.50789,-2.7258 -1.96946,-3.15805 -4.93884,-1.4606 -1.70164,0.97275 -7.64463,1.29596 -8.76939,0.47693 -0.36022,-0.26231 -1.38264,-1.57982 -2.27204,-2.92779 -0.88941,-1.34798 -2.253231,-2.61585 -3.030726,-2.81749 -0.777496,-0.20165 -1.568414,-0.77 -1.757595,-1.263 -0.378829,-0.98721 1.198364,-2.87884 2.406147,-2.88584 0.798152,-0.005 3.685324,-3.84451 3.687564,-4.9044 7.2e-4,-0.33494 1.73851,-0.67355 3.86178,-0.75247 3.08398,-0.11463 4.42207,0.17759 6.65255,1.45278 1.53564,0.87795 2.98375,1.59979 3.21802,1.60408 0.23427,0.005 0.62679,-1.45245 0.87226,-3.23722 0.24547,-1.78479 0.71106,-3.40869 1.03465,-3.60867 0.32359,-0.19999 0.58834,-0.89122 0.58834,-1.53607 0,-0.64485 0.58424,-1.9152 1.29831,-2.82299 0.71407,-0.90779 1.29831,-2.43905 1.29831,-3.40278 0,-1.35932 0.2394,-1.66037 1.06761,-1.34255 1.13979,0.43738 3.47648,-1.25795 3.47648,-2.52227 0,-0.41358 1.02242,-1.15313 2.27204,-1.64344 2.65033,-1.03991 2.73665,-1.41915 0.90769,-3.98769 -1.19399,-1.67681 -1.2645,-2.15716 -0.56463,-3.84678 1.06461,-2.57022 1.44939,-2.73121 4.53913,-1.89922 1.83871,0.49511 2.82362,1.19359 3.24469,2.3011 0.73054,1.92146 1.55135,1.9768 4.7947,0.32325 1.52993,-0.78001 3.16356,-1.13123 4.2505,-0.91384 1.71402,0.3428 2.11072,0.10455 4.43794,-2.66536 1.24377,-1.48036 3.21385,-1.20793 4.40439,0.60906 1.28596,1.96262 5.06641,2.85373 6.99557,1.64896 1.14392,-0.7144 1.5028,-0.61872 2.69992,0.71982 1.9447,2.17441 3.84511,3.14131 5.38343,2.73903 1.01623,-0.26575 1.36945,0.005 1.5354,1.17724 0.14282,1.00882 0.7166,1.59345 1.70085,1.73306 0.81693,0.11587 1.83659,0.77314 2.26591,1.4606 0.42932,0.68745 1.13351,1.24992 1.56485,1.24992 0.43135,0 2.58201,2.77514 4.77926,6.16698 2.19725,3.39184 4.26432,6.16698 4.59348,6.16698 0.85279,0 1.86465,-2.95848 1.86465,-5.45189 0,-1.16688 0.2058,-2.32739 0.45732,-2.57891 0.25152,-0.25153 0.5604,-1.22709 0.68639,-2.16792 0.126,-0.94084 0.50524,-2.2266 0.84275,-2.85726 0.41281,-0.77134 0.36844,-1.29821 -0.13558,-1.60971 -0.52316,-0.32333 -0.40055,-0.71805 0.4063,-1.30802 0.70596,-0.51622 1.02501,-1.34414 0.82004,-2.12796 -0.21411,-0.81875 0.2106,-1.79604 1.17376,-2.70088 1.26748,-1.19072 1.38586,-1.62028 0.7389,-2.68116 -0.64246,-1.05353 -0.5548,-1.41471 0.52794,-2.17533 3.20738,-2.25317 3.25187,-2.40039 1.96202,-6.49169 -0.35369,-1.12187 0.003,-1.42772 2.42322,-2.0749 2.18268,-0.58378 3.11271,-1.26905 4.02737,-2.96747 1.11544,-2.07125 1.12482,-2.39767 0.15103,-5.25559 l -1.03828,-3.04717 1.75514,-0.64093 c 0.96533,-0.35251 2.13135,-0.7734 2.59116,-0.9353 0.45981,-0.16191 1.00228,0.13888 1.20547,0.66841 0.48058,1.25235 2.75977,1.24466 3.24158,-0.0109 0.20552,-0.53555 0.80027,-0.97373 1.32169,-0.97373 0.60478,0 0.82003,-0.41132 0.59452,-1.13603 -0.50792,-1.63225 0.34328,-2.59753 2.21348,-2.51015 1.17994,0.0551 1.5738,-0.22129 1.44304,-1.01275 -0.11473,-0.6944 0.33138,-1.16452 1.23201,-1.29831 2.07276,-0.30792 3.17043,-2.36459 1.70674,-3.19788 -0.62482,-0.35571 -1.59723,-1.53858 -2.16091,-2.62861 -0.8334,-1.61163 -0.88235,-2.3259 -0.26203,-3.82349 0.41955,-1.01289 0.58768,-2.12501 0.37362,-2.47138 -0.21407,-0.34636 -0.2273,-1.051704 -0.0294,-1.567424 0.2923,-0.761713 0.99314,-0.824705 3.73475,-0.33568 4.10211,0.731701 5.95155,1.852614 7.27302,4.408084 1.13139,2.18785 2.87748,2.56128 3.35938,0.71846 0.1978,-0.75639 0.73438,-1.11448 1.40658,-0.9387 0.74961,0.19603 1.32279,-0.34108 1.84752,-1.73126 0.6801,-1.801803 0.89744,-1.930079 2.0503,-1.21011 1.64446,1.02697 3.34245,-0.19403 3.34245,-2.403502 0,-0.8278 0.36515,-1.736948 0.81145,-2.020328 1.35288,-0.859031 4.3818,-0.619375 4.3818,0.346699 0,1.082622 3.04387,0.465001 4.5952,-0.932394 1.26579,-1.140194 2.98866,-1.197202 3.3761,-0.111713 0.20241,0.567097 0.75626,0.384582 1.83927,-0.606105 1.10536,-1.011133 1.84908,-1.249233 2.59402,-0.830475 0.63041,0.354369 1.91528,0.337304 3.2415,-0.04305 1.20841,-0.346567 3.00237,-0.630123 3.98658,-0.630123 2.13722,0 2.3372,-1.250541 0.47019,-2.940167 -2.16862,-1.962572 -3.99824,-5.382984 -3.58161,-6.695681 0.22004,-0.693277 -0.0191,-1.552822 -0.55611,-1.998462 -0.81454,-0.67601 -0.7578,-1.094518 0.41875,-3.088625 1.07504,-1.822054 1.20782,-2.55187 0.63205,-3.473836 -0.88287,-1.413707 -0.0898,-2.249173 2.78693,-2.935781 1.06911,-0.255175 2.38202,-0.84014 2.91757,-1.299923 0.53555,-0.459783 1.77744,-1.036553 2.75975,-1.28171 1.27502,-0.318207 2.12707,-1.214914 2.978,-3.134065 1.36393,-3.076167 2.95382,-4.632951 4.04362,-3.959418 0.41254,0.254961 1.41604,1.9598 2.23002,3.78853 0.81397,1.82873 2.22009,3.961285 3.1247,4.739012 3.01341,2.590735 1.5802,4.296648 -7.94701,9.459116 -4.95175,2.683184 -4.10677,4.346309 2.22367,4.376745 3.81034,0.01832 7.29084,1.159606 8.41026,2.757791 0.89583,1.278973 0.86867,1.525739 -0.30544,2.775521 -2.32811,2.478158 -1.35398,3.560108 3.20533,3.560108 1.34219,0 3.83268,0.419028 5.53441,0.931174 2.21527,0.666699 3.57307,0.749048 4.78062,0.289938 1.37567,-0.523029 1.87141,-0.409522 2.68923,0.615738 1.96041,2.457652 5.87132,3.612349 5.87132,1.733506 0,-0.5833 0.59867,-0.973734 1.49306,-0.973734 0.82118,0 1.82042,-0.32736 2.22053,-0.727467 0.53718,-0.537186 0.84726,0.09955 1.18545,2.434333 0.57983,4.002978 1.22419,4.784688 3.94404,4.784688 1.20591,0 2.19257,0.24946 2.19257,0.55436 0,0.81723 3.07247,3.98973 3.86393,3.98973 0.37408,0 0.68015,0.29212 0.68015,0.64915 0,0.35704 0.52556,0.64916 1.16791,0.64916 0.7465,0 1.46571,-0.82356 1.99325,-2.28246 0.91564,-2.53217 4.90419,-4.84243 6.17179,-3.57484 0.36522,0.36523 2.24635,0.66405 4.18028,0.66405 3.32968,0 3.49547,0.0775 3.12482,1.4606 -0.21529,0.80333 -0.39542,2.45554 -0.4003,3.67158 -0.007,1.82899 -0.59283,2.74785 -3.38887,5.31839 l -3.38001,3.1074 1.27026,1.47793 c 0.69864,0.81286 2.3657,2.5594 3.70458,3.88119 1.33889,1.32179 2.43434,2.99316 2.43434,3.71415 0,0.72099 0.27936,1.48355 0.6208,1.69457 0.34145,0.21103 0.4772,0.75791 0.30169,1.21529 -0.17552,0.45739 0.23754,1.3354 0.91791,1.95112 1.02352,0.92627 1.52279,0.98929 2.89271,0.36512 1.40594,-0.64059 1.95719,-0.53969 3.65453,0.66892 2.56198,1.8243 2.51578,2.69399 -0.2732,5.14275 -1.57601,1.38375 -2.27204,2.54916 -2.27204,3.80418 0,2.98461 1.16947,6.13929 2.97423,8.02305 1.6939,1.76805 1.69543,1.77923 0.34408,2.50245 -1.85869,0.99474 -3.50599,4.39291 -3.11669,6.42936 0.20377,1.066 -0.1302,2.2536 -0.91399,3.25002 -0.67931,0.86359 -1.2351,2.10037 -1.2351,2.7484 0,1.85095 -3.60321,6.72185 -7.62234,10.30405 -2.01986,1.80026 -3.90628,3.27321 -4.19204,3.27321 -1.42935,0 -0.084,1.92243 3.16614,4.5241 4.13533,3.31029 8.64824,9.06499 8.64824,11.02791 0,0.72932 0.55973,1.88576 1.24385,2.56988 0.96569,0.9657 1.16526,1.82966 0.89246,3.8636 -0.30892,2.30316 -0.10622,2.86491 1.67736,4.64848 2.44943,2.44945 2.48136,2.78647 0.40819,4.30906 -1.32053,0.96983 -1.69842,1.94358 -2.04124,5.25982 l -0.42071,4.06965 2.4798,2.14361 c 2.73863,2.36737 2.74891,3.54212 0.0465,5.31283 -1.91871,1.25718 -4.04716,0.78603 -4.62131,-1.02295 -0.65415,-2.06106 -1.61235,-1.44349 -1.61235,1.03917 0,1.26736 -0.45011,3.17472 -1.00026,4.23858 -0.55014,1.06386 -0.85815,2.16423 -0.68446,2.44527 0.1737,0.28105 -0.52322,1.00661 -1.54869,1.61237 -1.02547,0.60577 -2.49401,2.11996 -3.26343,3.36489 -0.7694,1.24492 -1.66721,2.2635 -1.99512,2.2635 -1.49864,0 -0.35388,2.08416 1.94021,3.53235 2.57252,1.62396 3.40409,3.24914 4.25446,8.31474 l 0.40866,2.43433 -3.11291,0.0456 c -1.71209,0.0251 -3.69714,0.27988 -4.41121,0.5662 -1.76351,0.7071 -4.25471,-0.65265 -6.63753,-3.62291 l -1.93837,-2.41623 -1.22987,1.47461 c -0.67643,0.81103 -1.88156,1.7307 -2.67808,2.04371 -0.93636,0.36798 -1.31331,0.9206 -1.06656,1.56363 0.2923,0.76174 -0.0904,0.99451 -1.63529,0.99451 -2.6089,0 -4.48894,1.91336 -4.99604,5.08457 l -0.40075,2.50621 -2.22585,-0.76521 c -1.22422,-0.42087 -2.56701,-1.10637 -2.98398,-1.52334 -0.9281,-0.92811 -2.44594,-0.99574 -2.44594,-0.10899 0,0.35704 -0.42162,0.64916 -0.93693,0.64916 -0.51531,0 -1.36379,0.60944 -1.88551,1.3543 -0.72987,1.04203 -1.22482,1.2113 -2.14657,0.7341 -1.49401,-0.77347 -15.15365,1.78816 -15.15434,2.84194 -2.6e-4,0.39096 0.61485,1.26732 1.36691,1.94746 2.64151,2.38892 3.82586,5.74581 3.82586,10.84391 0,4.51636 -0.0956,4.83387 -1.6708,5.5516 -3.41095,1.55412 -6.77072,4.83551 -7.42005,7.24689 -0.35255,1.3093 -1.17258,2.86161 -1.82227,3.44958 -1.10888,1.00352 -1.30218,0.94023 -3.15461,-1.03294 z M 157.66334,202.61052 c 1.67284,-0.67337 4.3004,-1.56665 5.839,-1.98507 1.53861,-0.41843 3.29133,-1.372 3.89493,-2.11904 0.60362,-0.74704 1.58178,-1.77944 2.1737,-2.29422 5.17565,-4.5011 6.96032,-6.59631 7.60902,-8.93297 1.07074,-3.85691 0.88581,-6.98693 -0.61994,-10.49282 -0.74109,-1.72552 -1.50868,-5.03609 -1.70574,-7.35682 -0.35476,-4.17769 -0.40514,-4.26975 -5.08361,-9.28937 l -4.7253,-5.06986 -6.38977,-1.09165 c -7.26576,-1.24132 -21.64653,-1.39598 -24.3773,-0.26218 -2.02009,0.83873 -3.81012,4.01237 -5.39531,9.56563 -0.60843,2.13146 -1.99122,6.13968 -3.07288,8.90714 l -1.96665,5.03176 1.50092,5.58507 c 1.75856,6.54384 3.23025,8.96688 6.97294,11.48049 1.50621,1.01159 3.50946,3.15468 4.45167,4.76243 1.64453,2.80619 1.80873,2.90703 4.10229,2.51954 1.66002,-0.28046 3.36714,-0.007 5.59356,0.8959 4.06976,1.65051 7.35448,1.69335 11.19847,0.14604 z m 29.46217,-19.6785 c -0.60588,-0.60588 -0.77899,-0.43277 -0.77899,0.77898 0,1.21176 0.17311,1.38487 0.77899,0.77899 0.60587,-0.60588 0.60587,-0.9521 0,-1.55797 z"
         id="path915"
         transform="matrix(3.1347401,0,0,3.5087962,-246.08802,-172.92735)" />
    </g>
  </g>
</svg>
