<?xml version="1.0" encoding="UTF-8" standalone="no"?>
<svg
   xmlns:dc="http://purl.org/dc/elements/1.1/"
   xmlns:cc="http://creativecommons.org/ns#"
   xmlns:rdf="http://www.w3.org/1999/02/22-rdf-syntax-ns#"
   xmlns:svg="http://www.w3.org/2000/svg"
   xmlns="http://www.w3.org/2000/svg"
   xmlns:sodipodi="http://sodipodi.sourceforge.net/DTD/sodipodi-0.dtd"
   xmlns:inkscape="http://www.inkscape.org/namespaces/inkscape"
   version="1.0"
   width="800.000000pt"
   height="800.000000pt"
   viewBox="0 0 800.000000 800.000000"
   preserveAspectRatio="xMidYMid meet"
   id="svg971"
   sodipodi:docname="favicon.svg"
   inkscape:version="1.0.2 (e86c870, 2021-01-15)">
  <metadata
     id="metadata977">
    <rdf:RDF>
      <cc:Work
         rdf:about="">
        <dc:format>image/svg+xml</dc:format>
        <dc:type
           rdf:resource="http://purl.org/dc/dcmitype/StillImage" />
      </cc:Work>
    </rdf:RDF>
  </metadata>
  <defs
     id="defs975" />
  <sodipodi:namedview
     pagecolor="#ffffff"
     bordercolor="#666666"
     borderopacity="1"
     objecttolerance="10"
     gridtolerance="10"
     guidetolerance="10"
     inkscape:pageopacity="0"
     inkscape:pageshadow="2"
     inkscape:window-width="795"
     inkscape:window-height="480"
     id="namedview973"
     showgrid="false"
     inkscape:zoom="0.463125"
     inkscape:cx="533.33333"
     inkscape:cy="706.07287"
     inkscape:window-x="28"
     inkscape:window-y="20"
     inkscape:window-maximized="0"
     inkscape:current-layer="svg971" />
  <g
     transform="translate(0.000000,800.000000) scale(0.100000,-0.100000)"
     fill="#000000"
     stroke="none"
     id="g969">
    <path
       d="M3748 5760 c-16 -17 -28 -42 -28 -55 0 -16 -6 -25 -15 -25 -17 0 -57 -20 -66 -34 -4 -5 -24 -12 -45 -15 -36 -6 -55 -33 -33 -47 13 -7 -1 -56 -20 -71 -14 -12 -14 -14 3 -28 16 -12 18 -19 8 -40 -6 -14 -7 -25 -2 -25 5 0 11 -8 14 -18 4 -10 21 -33 38 -51 26 -27 29 -34 17 -42 -8 -5 -24 -7 -36 -4 -12 3 -25 0 -29 -6 -4 -8 -9 -7 -15 2 -6 10 -9 11 -9 2 0 -19 -21 -16 -36 5 -13 16 -14 16 -20 -5 -6 -21 -34 -41 -34 -24 0 19 -32 20 -48 1 -22 -25 -75 -39 -66 -17 4 12 1 14 -17 10 -15 -4 -20 -3 -15 5 10 17 -10 15 -26 -3 -33 -37 -38 -45 -28 -45 8 0 8 -6 0 -20 -12 -22 -36 -27 -44 -7 -7 17 -38 -23 -31 -41 4 -11 -1 -13 -21 -8 -18 5 -24 3 -19 -5 7 -10 -10 -28 -26 -29 -4 0 -12 13 -19 29 -17 43 -45 64 -87 65 -21 1 -45 6 -55 10 -12 5 -18 1 -23 -15 -5 -14 -3 -25 3 -27 6 -2 4 -14 -5 -33 -12 -25 -13 -35 -3 -60 7 -16 22 -36 33 -44 17 -12 18 -17 7 -30 -7 -8 -21 -15 -32 -15 -15 0 -18 -5 -13 -20 6 -17 3 -20 -17 -16 -13 2 -32 7 -43 11 -19 6 -19 6 -1 -5 14 -10 15 -14 5 -20 -10 -7 -10 -12 2 -26 12 -16 12 -17 -3 -12 -11 5 -18 0 -21 -13 -6 -21 -37 -26 -37 -6 0 16 -29 19 -47 5 -7 -5 -17 -7 -22 -4 -6 4 -15 -3 -21 -14 -7 -13 -7 -20 0 -20 5 0 10 -9 10 -20 0 -11 5 -29 12 -40 10 -15 9 -22 -3 -37 -9 -10 -19 -25 -22 -34 -3 -10 -22 -19 -47 -23 -40 -6 -42 -8 -35 -34 4 -15 11 -29 16 -33 13 -8 -13 -57 -28 -52 -6 2 -17 -6 -24 -18 -9 -19 -9 -25 5 -35 15 -10 14 -14 -14 -37 -16 -14 -26 -29 -20 -32 15 -10 12 -35 -5 -35 -17 0 -20 -16 -5 -25 7 -4 7 -13 0 -26 -6 -11 -8 -24 -5 -29 3 -5 -3 -13 -12 -19 -12 -7 -13 -10 -4 -11 10 0 11 -3 2 -13 -6 -8 -9 -16 -6 -19 8 -8 -15 -108 -25 -108 -5 0 -11 9 -15 20 -3 11 -21 41 -38 67 -18 27 -38 60 -46 75 -7 14 -22 29 -32 31 -11 3 -19 12 -19 20 0 8 -13 17 -31 21 -29 6 -31 8 -25 39 4 20 3 27 -3 18 -5 -7 -13 -11 -19 -7 -6 3 -13 0 -16 -6 -5 -10 -7 -10 -12 0 -3 6 -12 12 -20 12 -8 0 -20 11 -26 25 -11 25 -43 34 -50 15 -5 -15 -88 -1 -88 15 0 6 -8 19 -18 28 -23 21 -61 11 -68 -18 -7 -27 -49 -39 -69 -19 -12 12 -15 11 -19 -4 -6 -18 -69 -45 -80 -34 -3 3 -6 13 -6 23 0 19 -25 33 -52 30 -10 -1 -18 3 -18 8 0 23 -29 9 -44 -21 -21 -42 -20 -63 5 -87 22 -20 19 -41 -7 -41 -8 0 -14 -5 -14 -11 0 -6 -7 -9 -15 -5 -10 3 -15 -1 -15 -12 -1 -27 -25 -53 -37 -41 -17 17 -35 0 -29 -27 5 -17 0 -31 -14 -46 -11 -12 -20 -32 -20 -44 0 -12 -4 -24 -9 -26 -5 -1 -11 -23 -14 -48 -3 -25 -6 -46 -6 -47 -2 -10 -27 1 -55 22 -35 27 -65 31 -96 15 -13 -7 -21 -7 -25 0 -10 16 -25 11 -25 -8 0 -11 -9 -29 -20 -42 -11 -13 -20 -27 -20 -32 0 -4 -11 -8 -25 -8 -17 0 -23 -4 -19 -14 4 -11 -4 -16 -28 -19 l-33 -4 34 -1 c23 -1 32 -6 28 -15 -3 -8 4 -14 16 -15 12 0 23 -5 25 -11 2 -5 12 -19 23 -32 10 -12 19 -28 19 -35 0 -8 10 -14 23 -13 12 0 37 -2 56 -4 21 -3 47 3 72 17 34 18 41 19 49 6 5 -8 10 -30 10 -47 0 -18 5 -33 10 -33 6 0 10 -9 10 -20 0 -12 9 -30 19 -42 14 -15 18 -29 14 -49 -5 -28 2 -35 31 -30 15 3 36 -21 36 -40 0 -12 5 -16 15 -13 8 4 15 1 15 -5 0 -6 7 -11 15 -11 8 0 15 -6 15 -14 0 -7 -7 -19 -15 -26 -19 -16 -19 -38 0 -84 15 -35 18 -37 48 -31 36 8 67 32 67 52 0 19 27 28 45 13 8 -6 18 -9 24 -6 5 4 13 -3 16 -14 5 -16 10 -18 20 -10 14 12 65 -3 65 -20 0 -5 11 -17 25 -26 24 -16 27 -16 45 1 11 10 20 24 20 30 0 17 76 28 100 15 16 -8 22 -6 35 14 15 23 47 40 72 37 7 -1 20 10 29 24 9 14 24 25 34 25 10 0 22 9 25 20 3 11 12 20 19 20 7 0 19 12 27 28 7 15 28 48 46 75 17 26 35 56 38 67 16 50 36 7 39 -80 0 -31 6 -52 14 -55 7 -3 10 -10 7 -15 -4 -6 -1 -18 7 -27 10 -13 10 -17 1 -20 -19 -7 -16 -23 3 -23 12 0 15 -7 12 -24 -3 -16 3 -35 17 -52 20 -25 21 -30 8 -40 -12 -8 -13 -15 -4 -32 6 -12 17 -19 24 -17 18 7 41 -46 24 -57 -6 -4 -8 -8 -3 -8 5 0 2 -7 -5 -16 -11 -14 -10 -18 6 -30 10 -8 29 -14 42 -14 13 0 26 -8 30 -17 3 -10 13 -26 22 -36 12 -15 13 -22 3 -37 -7 -11 -12 -29 -12 -40 0 -11 -5 -20 -10 -20 -7 0 -7 -6 0 -20 6 -11 16 -17 25 -14 9 4 21 1 29 -5 11 -9 18 -8 30 5 19 18 46 12 46 -10 0 -10 6 -13 18 -9 14 5 15 3 5 -8 -15 -16 -17 -33 -3 -24 6 3 10 2 10 -4 0 -5 -6 -11 -12 -14 -7 -2 -10 -8 -6 -12 4 -4 14 -2 23 5 17 14 50 6 40 -10 -4 -6 7 -15 24 -21 33 -12 41 -33 17 -42 -25 -10 -49 -67 -38 -91 5 -11 7 -32 6 -46 -5 -38 9 -55 34 -41 11 6 37 11 57 11 31 0 40 6 67 44 29 42 58 52 58 20 0 -8 6 -11 17 -7 12 5 15 2 10 -10 -3 -9 -2 -17 4 -17 6 0 8 -4 5 -9 -3 -5 3 -11 14 -14 10 -3 20 -1 22 5 6 16 40 -4 35 -21 -2 -9 1 -22 7 -28 6 -7 17 -19 24 -28 7 -8 18 -15 25 -15 8 0 8 3 -1 9 -10 6 -6 11 17 19 36 13 91 -2 91 -24 0 -8 5 -14 10 -14 6 0 10 4 10 9 0 4 12 8 28 7 16 -1 26 -6 24 -13 -1 -7 5 -13 13 -13 8 0 15 5 15 10 0 9 37 8 60 0 3 -1 17 -1 32 0 40 2 43 -18 9 -51 -28 -27 -36 -40 -32 -61 0 -5 -6 -8 -14 -8 -13 0 -14 -4 -5 -21 9 -17 8 -25 -7 -41 -16 -18 -16 -21 -2 -31 21 -16 33 -55 22 -70 -18 -23 -9 -42 20 -42 15 -1 35 -8 45 -16 9 -8 34 -22 55 -32 24 -12 37 -25 37 -37 0 -11 14 -34 32 -50 l32 -31 22 28 c13 15 23 40 24 54 0 24 26 59 44 59 5 0 17 11 27 24 11 14 29 26 42 28 16 2 21 9 19 23 -2 11 -3 34 -2 50 4 67 -2 108 -20 129 -7 9 -9 16 -4 16 4 0 -8 14 -27 30 -28 26 -31 33 -19 41 8 5 23 7 32 5 10 -2 20 -1 23 3 2 5 18 8 35 9 16 0 46 6 65 13 27 10 38 10 47 1 7 -7 19 -12 27 -12 8 0 12 3 8 6 -8 8 25 44 35 38 4 -3 8 0 8 5 0 17 30 13 36 -4 4 -8 17 -15 29 -15 13 0 27 -5 30 -10 3 -5 11 -10 16 -10 6 0 8 4 4 9 -8 15 12 93 27 103 7 5 27 7 44 6 27 -3 30 -1 26 21 -3 15 -1 22 5 18 6 -4 21 7 34 23 13 16 26 30 29 30 3 0 13 -15 23 -32 10 -18 31 -41 47 -50 26 -15 34 -15 62 -4 17 8 48 11 69 9 l38 -6 -10 34 c-5 19 -10 50 -11 69 -1 35 -32 74 -69 85 -23 8 -25 33 -4 41 8 4 15 11 15 18 0 16 56 76 71 76 6 0 9 8 6 20 -3 11 1 27 10 35 8 8 12 18 9 23 -2 4 -1 14 4 22 7 12 15 13 38 4 25 -10 32 -8 61 18 l32 29 -21 33 c-11 19 -29 36 -41 39 -17 5 -19 11 -14 39 4 18 7 47 6 65 -1 22 4 33 17 37 9 3 23 16 31 27 11 19 11 23 0 30 -35 19 -47 37 -53 72 -4 23 -3 37 4 37 18 0 11 29 -10 40 -14 8 -20 21 -20 45 0 19 -5 35 -10 35 -6 0 -15 10 -20 23 -15 34 -33 60 -55 78 -11 9 -37 32 -58 51 l-39 34 60 49 c33 28 70 69 82 92 11 24 25 45 31 48 5 4 9 19 9 35 0 19 8 34 22 45 20 13 21 18 10 35 -8 14 -9 26 -3 38 9 17 11 24 11 40 0 5 11 15 25 22 31 17 31 21 -2 55 -16 15 -29 39 -30 54 -1 14 -5 41 -9 59 -5 28 -3 34 14 39 12 3 30 21 42 40 17 30 18 36 6 49 -8 8 -19 14 -24 14 -6 0 -13 7 -16 15 -5 14 -9 14 -35 1 -26 -14 -30 -14 -45 3 -14 15 -14 20 -4 24 10 4 8 9 -5 17 -13 9 -17 19 -13 36 5 19 1 27 -19 36 -13 6 -27 19 -30 30 -4 10 -11 18 -16 18 -5 0 -9 5 -9 11 0 7 -8 18 -17 25 -19 15 -21 13 54 72 15 12 22 28 23 52 0 19 4 50 9 67 l9 32 -55 -1 c-38 -1 -57 3 -63 13 -8 11 -13 12 -30 2 -11 -7 -25 -13 -32 -13 -13 0 -38 -44 -38 -67 0 -7 -7 -13 -15 -13 -8 0 -15 5 -15 10 0 6 -7 10 -15 10 -8 0 -14 5 -12 12 1 7 -5 12 -13 13 -8 0 -16 9 -19 20 -4 26 -21 36 -42 25 -22 -12 -54 22 -46 50 3 11 1 23 -5 26 -5 3 -8 15 -5 25 5 20 -7 26 -18 9 -3 -5 -17 -10 -31 -10 -15 0 -24 -6 -24 -15 0 -34 -69 -4 -82 36 -4 11 -10 11 -36 0 -24 -10 -35 -11 -46 -2 -7 6 -33 13 -57 15 -24 2 -46 5 -49 6 -3 1 -12 2 -20 1 -8 0 -22 4 -30 9 -13 9 -12 13 8 27 29 20 28 44 -3 73 -19 18 -38 23 -97 27 -40 3 -79 6 -87 9 -22 7 4 30 85 75 41 22 79 49 84 59 15 27 12 70 -3 70 -20 0 -47 33 -47 59 0 20 -37 81 -49 81 -3 0 -18 -14 -33 -30z m-1748 -1382 c25 -6 81 -16 125 -22 79 -11 80 -12 98 -49 10 -20 39 -53 63 -73 44 -36 44 -36 44 -103 0 -50 6 -80 26 -121 23 -50 24 -59 15 -117 -7 -47 -18 -74 -41 -103 -18 -22 -37 -40 -43 -40 -16 0 -57 -41 -57 -57 0 -16 -58 -43 -93 -43 -13 0 -33 -9 -45 -20 -26 -25 -116 -28 -148 -5 -29 20 -81 27 -104 15 -17 -9 -23 -4 -45 41 -16 30 -38 57 -57 67 -68 38 -76 54 -125 250 -3 13 5 42 21 75 14 28 33 85 41 125 16 77 43 139 71 163 14 12 78 21 184 27 14 1 45 -4 70 -10z m507 -480 c-3 -7 -5 -2 -5 12 0 14 2 19 5 13 2 -7 2 -19 0 -25z m2217 -603 c3 -8 1 -15 -4 -15 -6 0 -10 7 -10 15 0 8 2 15 4 15 2 0 6 -7 10 -15z"
       id="path965" />
    <path
       d="M2890 5070 c0 -5 5 -10 11 -10 5 0 7 5 4 10 -3 6 -8 10 -11 10 -2 0 -4 -4 -4 -10z"
       id="path967" />
  </g>
  <path
     style="fill:#a0a0a0;stroke:none;stroke-width:2.15924"
     d="m 499.03471,765.34294 c -4.35023,-7.1534 -15.31815,-15.00556 -20.95981,-15.00556 -2.37557,0 -2.92925,-1.26948 -1.92865,-4.42211 0.77193,-2.43215 0.38065,-5.65458 -0.86951,-7.16094 -2.71067,-3.26616 0.67189,-17.83959 5.36972,-23.13488 5.3636,-6.04575 3.29312,-7.81737 -10.65877,-9.12021 -7.52565,-0.70277 -16.3426,-2.48952 -19.5932,-3.97059 -4.58982,-2.09127 -6.8282,-2.11954 -10.01958,-0.12653 -3.57562,2.233 -4.55549,1.70379 -7.54332,-4.07402 -2.17255,-4.20127 -4.56995,-6.20444 -6.52679,-5.45354 -1.70112,0.65278 -3.09292,-0.006 -3.09292,-1.46483 0,-1.45844 -2.12973,-3.98174 -4.73272,-5.60734 -4.27794,-2.67162 -5.16155,-2.41786 -9.19495,2.64051 -2.98202,3.73984 -6.96304,5.8014 -12.0014,6.21491 -7.22488,0.59298 -7.56628,0.29597 -8.1882,-7.12339 -0.41987,-5.00871 0.53307,-8.72319 2.69905,-10.52081 1.84143,-1.52818 3.34804,-3.63124 3.34804,-4.6734 0,-2.59649 -8.13456,-10.53184 -10.79622,-10.53184 -1.18759,0 -2.15925,-1.04106 -2.15925,-2.31348 0,-4.72391 -6.25651,-8.62055 -11.66271,-7.26368 -7.83779,1.96716 -10.18943,-0.25488 -7.56768,-7.15059 2.75434,-7.24444 -1.0376,-15.24623 -8.06023,-17.0088 -4.09553,-1.02791 -4.70008,-2.26136 -3.65918,-7.46583 0.91175,-4.55879 0.3056,-6.59569 -2.25523,-7.57838 -1.92616,-0.73913 -3.50212,-3.73297 -3.50212,-6.65294 0,-2.91997 -1.11402,-7.39062 -2.4756,-9.93475 -1.36158,-2.54415 -2.63337,-6.12398 -2.82619,-7.95521 -1.03446,-9.82426 -6.29243,-30.32007 -7.77827,-30.32007 -0.94708,0 -5.15365,5.58705 -9.34792,12.41566 -10.59699,17.25275 -29.28486,30.76923 -42.54151,30.76923 -3.16624,0 -6.9664,1.45749 -8.44481,3.23886 -1.47841,1.78138 -3.92258,3.23887 -5.43149,3.23887 -1.5089,0 -3.30275,-1.45749 -3.98633,-3.23887 -0.68358,-1.78137 -2.90478,-3.23886 -4.93601,-3.23886 -2.03123,0 -6.93177,-1.17111 -10.89008,-2.60245 -6.53457,-2.36293 -7.50388,-2.16421 -10.53215,2.15924 -6.80577,9.71662 -17.06394,1.77781 -11.39353,-8.81747 2.18163,-4.07641 -0.29318,-7.88018 -5.19209,-7.98022 -0.89068,-0.0173 -1.61943,-1.42508 -1.61943,-3.12641 0,-1.70136 -1.94332,-3.71014 -4.31849,-4.464 -2.37517,-0.75386 -4.31849,-3.19113 -4.31849,-5.41618 0,-2.22506 -0.85215,-4.5722 -1.89366,-5.2159 -1.04152,-0.64371 -3.02147,-5.64925 -4.39989,-11.12345 -2.05959,-8.17937 -3.16509,-9.66279 -6.2035,-8.32421 -2.0335,0.89587 -7.38878,2.06404 -11.90062,2.59595 -7.35152,0.86666 -8.94079,0.11401 -15.30517,-7.24852 l -7.10183,-8.2156 6.8894,-6.88941 c 9.00158,-9.00157 14.99851,-10.80195 21.59145,-6.4821 2.86903,1.87986 6.03267,3.41793 7.03031,3.41793 0.99764,0 4.18973,-7.28442 7.09352,-16.18763 2.90379,-8.9032 6.27825,-16.19065 7.4988,-16.19433 1.22055,-0.004 3.78229,-1.83227 5.69274,-4.06353 1.91046,-2.23125 4.79847,-4.5014 6.4178,-5.04478 2.47878,-0.83176 2.48269,-1.85452 0.0248,-6.46949 -2.22083,-4.16976 -2.34213,-6.56032 -0.50688,-9.98952 2.77502,-5.18517 7.98809,-4.25613 13.34564,2.37837 3.03662,3.7604 4.05283,3.92432 8.63697,1.39318 2.85749,-1.57776 6.51845,-2.5973 8.13547,-2.26564 1.61702,0.33165 5.26762,-1.58364 8.11245,-4.25622 l 5.17241,-4.85922 4.58606,4.92256 c 3.36493,3.61183 6.137,4.61238 10.41069,3.75764 4.1561,-0.83121 6.88179,0.0698 9.51509,3.14523 2.42319,2.83008 5.14079,3.84983 7.91401,2.96964 2.93442,-0.93135 3.92093,-0.47359 3.23205,1.49974 -0.54533,1.56214 2.08995,4.78357 5.85618,7.15874 3.76622,2.37517 10.18924,9.9591 14.27336,16.85318 4.08413,6.89408 8.24214,11.71824 9.24003,10.72035 1.78083,-1.78083 6.51598,-21.76254 6.91797,-29.19296 0.11244,-2.07827 0.93738,-3.77868 1.83321,-3.77868 0.89583,0 1.12923,-1.30182 0.51866,-2.89292 -0.61056,-1.59112 0.40357,-4.14918 2.25364,-5.6846 2.46738,-2.04774 2.74411,-3.5383 1.03847,-5.59347 -1.74632,-2.10419 -1.15804,-3.42649 2.36271,-5.31073 3.73604,-1.99947 4.4302,-3.79783 3.41851,-8.8563 -1.04647,-5.23235 -0.40751,-6.67508 3.63733,-8.21293 8.36456,-3.1802 10.66205,-7.59214 8.33754,-16.01083 -1.85532,-6.71942 -1.59364,-7.63788 2.47964,-8.70307 2.50462,-0.65497 5.18715,-0.16617 5.96117,1.08622 2.00809,3.24917 10.7192,-2.57231 10.06171,-6.72408 -0.32547,-2.05515 0.88753,-3.03668 3.26039,-2.63826 2.07827,0.34895 3.77868,-0.51559 3.77868,-1.92121 0,-1.40561 1.66372,-3.77221 3.69716,-5.2591 3.24379,-2.37191 3.3166,-3.16201 0.59384,-6.44275 -1.70684,-2.05662 -3.15356,-7.50589 -3.21494,-12.1095 -0.10537,-7.89753 0.25747,-8.37129 6.42373,-8.38966 4.70553,-0.014 8.2409,1.95077 12.62715,7.01754 3.94634,4.55862 6.48125,6.08642 7.19749,4.33796 0.60809,-1.48448 2.48214,-2.69906 4.16454,-2.69906 1.68242,0 3.05894,-1.45749 3.05894,-3.23886 0,-1.81257 1.92526,-3.23887 4.37193,-3.23887 2.67659,0 5.16778,-2.09326 6.42429,-5.39811 2.14857,-5.65119 7.64394,-7.29757 9.16156,-2.74475 0.6468,1.94044 2.452,1.62626 6.71864,-1.16936 3.20883,-2.1025 6.77843,-3.23917 7.93248,-2.52593 1.15403,0.71324 3.28845,0.56121 4.74315,-0.33784 1.45468,-0.89905 4.61258,-1.74869 7.01754,-1.88808 16.21671,-0.93994 16.89898,-1.74362 9.72172,-11.45138 -2.40214,-3.24907 -4.34764,-8.79677 -4.32332,-12.32823 0.11249,-16.34934 0.74353,-17.60459 11.3899,-22.65915 5.64103,-2.67818 10.25641,-6.04246 10.25641,-7.47617 0,-1.43371 1.93365,-4.35667 4.29698,-6.49546 4.19151,-3.79326 4.37392,-3.70452 7.4326,3.61591 1.72461,4.12754 4.5915,8.71289 6.37089,10.18966 4.8366,4.01401 2.05672,8.25119 -10.81555,16.48548 -6.38188,4.08244 -11.60341,8.28603 -11.60341,9.3413 0,1.05528 5.37833,2.3647 11.95183,2.90983 14.42658,1.19636 18.3384,4.12987 14.24583,10.68311 -3.78988,6.06855 -1.30116,7.45797 16.76219,9.35807 7.96552,0.8379 15.93734,2.9964 18.05979,4.88997 3.2833,2.92926 4.54944,2.98865 9.3172,0.43701 4.72242,-2.52736 5.80373,-2.50053 7.50331,0.18617 1.09217,1.7265 2.00065,4.83949 2.01883,6.91776 0.0173,2.07827 1.62827,3.77868 3.57798,3.77868 1.94969,0 6.33062,2.91498 9.73536,6.47773 7.46617,7.81263 9.96642,8.08707 12.51869,1.37411 2.3961,-6.30222 5.25802,-7.3857 16.44446,-6.22562 8.45964,0.87729 8.74192,1.15557 7.85039,7.73906 -0.50863,3.75598 -3.7386,9.80049 -7.1777,13.43225 l -6.25293,6.60321 7.55932,8.83136 c 4.15763,4.85725 7.83935,10.63074 8.18161,12.82999 1.02396,6.57951 3.87472,9.6438 7.80988,8.39483 2.04064,-0.64767 5.60259,0.20617 7.91547,1.8974 4.13849,3.02619 4.12813,3.15702 -0.65309,8.24646 -5.68114,6.04736 -6.32706,15.8704 -1.497,22.76628 3.04224,4.34341 3.04224,5.25446 0,9.59786 -1.8487,2.63942 -3.3613,7.02507 -3.3613,9.7459 0,2.72083 -0.8583,6.63419 -1.90732,8.69634 -1.04903,2.06216 -3.23526,6.64002 -4.8583,10.17303 -1.62304,3.533 -7.17137,10.49801 -12.32961,15.47778 l -9.37863,9.05415 8.44014,7.62515 c 4.64209,4.19384 10.22,11.31792 12.3954,15.83126 2.17539,4.51336 4.78393,9.89331 5.79679,11.95547 1.01284,2.06217 1.84153,6.12233 1.84153,9.02256 0,2.90025 1.56952,6.84269 3.48781,8.76098 3.21093,3.21093 3.21093,3.79379 0,7.3418 -4.97617,5.49862 -4.49714,19.43518 0.86419,25.14206 4.26861,4.54372 4.27352,4.70351 0.25663,8.33873 -3.69611,3.34492 -4.4211,3.38051 -7.43663,0.36499 -4.03982,-4.03983 -6.17462,-4.28927 -5.49623,-0.64222 0.86661,4.65911 -2.69085,16.63503 -5.44814,18.34071 -1.45125,0.89777 -4.72203,4.6213 -7.26838,8.2745 l -4.62972,6.64223 6.3575,5.5786 c 7.16474,6.28696 8.83485,17.51108 2.94204,19.77235 -7.82746,3.00368 -15.92333,1.30276 -19.45516,-4.08747 -4.38817,-6.69722 -6.30959,-6.74401 -12.3202,-0.30009 -2.61536,2.8039 -6.87391,5.76293 -9.46342,6.57561 -2.89296,0.90789 -5.2485,3.93736 -6.1095,7.85744 -1.60201,7.29397 -1.31429,7.15436 -8.24073,3.99847 -3.96181,-1.80511 -6.46836,-1.6941 -10.35803,0.45873 -2.82228,1.56206 -5.84144,2.63994 -6.70924,2.39527 -1.54749,-0.43632 -21.73543,3.29587 -27.01703,4.99468 -1.86632,0.60031 -1.04412,3.27966 2.69906,8.79553 3.8503,5.67374 5.36604,10.76673 5.32353,17.88735 -0.0527,8.83328 -0.89801,10.56339 -7.50092,15.3532 -4.09282,2.96896 -8.50943,8.54247 -9.81469,12.38558 -3.34247,9.84127 -5.69542,10.43144 -10.44584,2.61998 z M 284.14019,582.05333 c 6.14325,-2.33496 15.373,-8.43349 20.91449,-13.8192 11.75729,-11.42679 14.47385,-21.00617 10.17971,-35.89666 -1.55443,-5.39021 -3.28065,-13.65411 -3.83604,-18.36427 -0.662,-5.61438 -3.01421,-10.44828 -6.82956,-14.03509 -3.20087,-3.00915 -6.81279,-7.26388 -8.02648,-9.45497 -1.62428,-2.93232 -7.22127,-4.8401 -21.20557,-7.2281 -21.66672,-3.69987 -40.02299,-2.37176 -44.81962,3.24277 -1.71536,2.00785 -6.21733,13.14807 -10.0044,24.75606 -6.10185,18.7032 -6.62045,22.1439 -4.5563,30.22942 4.00009,15.66888 6.67129,20.65933 14.08489,26.31396 3.951,3.01357 7.80062,7.42318 8.55472,9.79914 0.98941,3.11735 3.28414,4.32914 8.24313,4.353 3.77962,0.0182 8.32953,0.97496 10.11091,2.12618 5.07921,3.28244 15.2173,2.52841 27.19012,-2.02224 z"
     id="path1540"
     transform="scale(0.75000003)" />
</svg>
