<?xml version="1.0" encoding="UTF-8" standalone="no"?>
<svg
   xmlns:krita="http://krita.org/namespaces/svg/krita"
   xmlns:dc="http://purl.org/dc/elements/1.1/"
   xmlns:cc="http://creativecommons.org/ns#"
   xmlns:rdf="http://www.w3.org/1999/02/22-rdf-syntax-ns#"
   xmlns:svg="http://www.w3.org/2000/svg"
   xmlns="http://www.w3.org/2000/svg"
   xmlns:sodipodi="http://sodipodi.sourceforge.net/DTD/sodipodi-0.dtd"
   xmlns:inkscape="http://www.inkscape.org/namespaces/inkscape"
   width="453.5433"
   height="340.15747"
   id="svg2"
   sodipodi:version="0.32"
   inkscape:version="1.0.2 (e86c870, 2021-01-15)"
   sodipodi:docname="page_start.svg"
   version="1.0"
   viewBox="0 0 453.5433 340.15747">
  <defs
     id="defs4" />
  <sodipodi:namedview
     id="base"
     pagecolor="#ffffff"
     bordercolor="#666666"
     borderopacity="1.0"
     inkscape:pageopacity="0.0"
     inkscape:pageshadow="2"
     inkscape:zoom="1.540463"
     inkscape:cx="255.157"
     inkscape:cy="170.07874"
     inkscape:document-units="mm"
     inkscape:current-layer="g130"
     inkscape:window-width="1366"
     inkscape:window-height="707"
     inkscape:window-x="0"
     inkscape:window-y="0"
     width="12.8cm"
     height="9.6cm"
     units="cm"
     showgrid="true"
     grid_units="mm"
     inkscape:object-paths="false"
     inkscape:grid-points="true"
     inkscape:grid-bbox="true"
     inkscape:guide-points="true"
     showguides="true"
     inkscape:guide-bbox="true"
     inkscape:document-rotation="0"
     inkscape:window-maximized="1">
    <sodipodi:guide
       orientation="vertical"
       position="56.476527"
       id="guide3573" />
    <sodipodi:guide
       orientation="horizontal"
       position="11.035643"
       id="guide3579" />
    <sodipodi:guide
       orientation="horizontal"
       position="24.018753"
       id="guide3886" />
    <sodipodi:guide
       orientation="horizontal"
       position="285.62841"
       id="guide3988" />
    <sodipodi:guide
       orientation="horizontal"
       position="303.15561"
       id="guide4081" />
    <inkscape:grid
       id="GridFromPre046Settings"
       type="xygrid"
       originx="0"
       originy="0"
       spacingx="7.5590551"
       spacingy="7.5590551"
       color="#3f3fff"
       empcolor="#3f3fff"
       opacity="0.15"
       empopacity="0.38"
       empspacing="5" />
  </sodipodi:namedview>
  <metadata
     id="metadata7">
    <rdf:RDF>
      <cc:Work
         rdf:about="">
        <dc:format>image/svg+xml</dc:format>
        <dc:type
           rdf:resource="http://purl.org/dc/dcmitype/StillImage" />
        <dc:title />
      </cc:Work>
    </rdf:RDF>
  </metadata>
  <g
     inkscape:label="Layer 1"
     inkscape:groupmode="layer"
     id="layer1">
    <g
       id="g130"
       transform="matrix(0.31900571,0,0,0.28499803,78.503485,49.283955)">
      <text
         id="shape0"
         krita:useRichText="true"
         fill="#000000"
         stroke="#000000"
         stroke-opacity="0"
         stroke-width="0"
         stroke-linecap="square"
         stroke-linejoin="bevel"
         font-family="'SF Mono'"
         font-size="84.6571px"
         font-size-adjust="0.414063"
         font-stretch="normal"
         font-weight="700"
         letter-spacing="0"
         word-spacing="0"
         x="660.04028"
         y="373.31552"
         transform="scale(0.90289685,1.1075462)"
         style="fill:#ffffff;"><tspan
           x="660.04028"
           id="tspan114"
           style="stroke-width:0;fill:#ffffff;">MandelBrot</tspan><tspan
           x="660.04028"
           dy="121.10667"
           id="tspan116"
           style="stroke-width:0;fill:#ffffff;">Crew</tspan></text>
      <path
         id="shape1"
         fill="none"
         stroke="#000000"
         stroke-width="15.75"
         stroke-linecap="square"
         stroke-linejoin="miter"
         stroke-miterlimit="2"
         d="m 512.17352,198.39722 3,495" />
      <g
         transform="matrix(0.12083012,0,0,-0.14456813,-174.41392,1031.3583)"
         fill="#000000"
         stroke="none"
         id="g186">
        <path
           d="m 3748,5760 c -16,-17 -28,-42 -28,-55 0,-16 -6,-25 -15,-25 -17,0 -57,-20 -66,-34 -4,-5 -24,-12 -45,-15 -36,-6 -55,-33 -33,-47 13,-7 -1,-56 -20,-71 -14,-12 -14,-14 3,-28 16,-12 18,-19 8,-40 -6,-14 -7,-25 -2,-25 5,0 11,-8 14,-18 4,-10 21,-33 38,-51 26,-27 29,-34 17,-42 -8,-5 -24,-7 -36,-4 -12,3 -25,0 -29,-6 -4,-8 -9,-7 -15,2 -6,10 -9,11 -9,2 0,-19 -21,-16 -36,5 -13,16 -14,16 -20,-5 -6,-21 -34,-41 -34,-24 0,19 -32,20 -48,1 -22,-25 -75,-39 -66,-17 4,12 1,14 -17,10 -15,-4 -20,-3 -15,5 10,17 -10,15 -26,-3 -33,-37 -38,-45 -28,-45 8,0 8,-6 0,-20 -12,-22 -36,-27 -44,-7 -7,17 -38,-23 -31,-41 4,-11 -1,-13 -21,-8 -18,5 -24,3 -19,-5 7,-10 -10,-28 -26,-29 -4,0 -12,13 -19,29 -17,43 -45,64 -87,65 -21,1 -45,6 -55,10 -12,5 -18,1 -23,-15 -5,-14 -3,-25 3,-27 6,-2 4,-14 -5,-33 -12,-25 -13,-35 -3,-60 7,-16 22,-36 33,-44 17,-12 18,-17 7,-30 -7,-8 -21,-15 -32,-15 -15,0 -18,-5 -13,-20 6,-17 3,-20 -17,-16 -13,2 -32,7 -43,11 -19,6 -19,6 -1,-5 14,-10 15,-14 5,-20 -10,-7 -10,-12 2,-26 12,-16 12,-17 -3,-12 -11,5 -18,0 -21,-13 -6,-21 -37,-26 -37,-6 0,16 -29,19 -47,5 -7,-5 -17,-7 -22,-4 -6,4 -15,-3 -21,-14 -7,-13 -7,-20 0,-20 5,0 10,-9 10,-20 0,-11 5,-29 12,-40 10,-15 9,-22 -3,-37 -9,-10 -19,-25 -22,-34 -3,-10 -22,-19 -47,-23 -40,-6 -42,-8 -35,-34 4,-15 11,-29 16,-33 13,-8 -13,-57 -28,-52 -6,2 -17,-6 -24,-18 -9,-19 -9,-25 5,-35 15,-10 14,-14 -14,-37 -16,-14 -26,-29 -20,-32 15,-10 12,-35 -5,-35 -17,0 -20,-16 -5,-25 7,-4 7,-13 0,-26 -6,-11 -8,-24 -5,-29 3,-5 -3,-13 -12,-19 -12,-7 -13,-10 -4,-11 10,0 11,-3 2,-13 -6,-8 -9,-16 -6,-19 8,-8 -15,-108 -25,-108 -5,0 -11,9 -15,20 -3,11 -21,41 -38,67 -18,27 -38,60 -46,75 -7,14 -22,29 -32,31 -11,3 -19,12 -19,20 0,8 -13,17 -31,21 -29,6 -31,8 -25,39 4,20 3,27 -3,18 -5,-7 -13,-11 -19,-7 -6,3 -13,0 -16,-6 -5,-10 -7,-10 -12,0 -3,6 -12,12 -20,12 -8,0 -20,11 -26,25 -11,25 -43,34 -50,15 -5,-15 -88,-1 -88,15 0,6 -8,19 -18,28 -23,21 -61,11 -68,-18 -7,-27 -49,-39 -69,-19 -12,12 -15,11 -19,-4 -6,-18 -69,-45 -80,-34 -3,3 -6,13 -6,23 0,19 -25,33 -52,30 -10,-1 -18,3 -18,8 0,23 -29,9 -44,-21 -21,-42 -20,-63 5,-87 22,-20 19,-41 -7,-41 -8,0 -14,-5 -14,-11 0,-6 -7,-9 -15,-5 -10,3 -15,-1 -15,-12 -1,-27 -25,-53 -37,-41 -17,17 -35,0 -29,-27 5,-17 0,-31 -14,-46 -11,-12 -20,-32 -20,-44 0,-12 -4,-24 -9,-26 -5,-1 -11,-23 -14,-48 -3,-25 -6,-46 -6,-47 -2,-10 -27,1 -55,22 -35,27 -65,31 -96,15 -13,-7 -21,-7 -25,0 -10,16 -25,11 -25,-8 0,-11 -9,-29 -20,-42 -11,-13 -20,-27 -20,-32 0,-4 -11,-8 -25,-8 -17,0 -23,-4 -19,-14 4,-11 -4,-16 -28,-19 l -33,-4 34,-1 c 23,-1 32,-6 28,-15 -3,-8 4,-14 16,-15 12,0 23,-5 25,-11 2,-5 12,-19 23,-32 10,-12 19,-28 19,-35 0,-8 10,-14 23,-13 12,0 37,-2 56,-4 21,-3 47,3 72,17 34,18 41,19 49,6 5,-8 10,-30 10,-47 0,-18 5,-33 10,-33 6,0 10,-9 10,-20 0,-12 9,-30 19,-42 14,-15 18,-29 14,-49 -5,-28 2,-35 31,-30 15,3 36,-21 36,-40 0,-12 5,-16 15,-13 8,4 15,1 15,-5 0,-6 7,-11 15,-11 8,0 15,-6 15,-14 0,-7 -7,-19 -15,-26 -19,-16 -19,-38 0,-84 15,-35 18,-37 48,-31 36,8 67,32 67,52 0,19 27,28 45,13 8,-6 18,-9 24,-6 5,4 13,-3 16,-14 5,-16 10,-18 20,-10 14,12 65,-3 65,-20 0,-5 11,-17 25,-26 24,-16 27,-16 45,1 11,10 20,24 20,30 0,17 76,28 100,15 16,-8 22,-6 35,14 15,23 47,40 72,37 7,-1 20,10 29,24 9,14 24,25 34,25 10,0 22,9 25,20 3,11 12,20 19,20 7,0 19,12 27,28 7,15 28,48 46,75 17,26 35,56 38,67 16,50 36,7 39,-80 0,-31 6,-52 14,-55 7,-3 10,-10 7,-15 -4,-6 -1,-18 7,-27 10,-13 10,-17 1,-20 -19,-7 -16,-23 3,-23 12,0 15,-7 12,-24 -3,-16 3,-35 17,-52 20,-25 21,-30 8,-40 -12,-8 -13,-15 -4,-32 6,-12 17,-19 24,-17 18,7 41,-46 24,-57 -6,-4 -8,-8 -3,-8 5,0 2,-7 -5,-16 -11,-14 -10,-18 6,-30 10,-8 29,-14 42,-14 13,0 26,-8 30,-17 3,-10 13,-26 22,-36 12,-15 13,-22 3,-37 -7,-11 -12,-29 -12,-40 0,-11 -5,-20 -10,-20 -7,0 -7,-6 0,-20 6,-11 16,-17 25,-14 9,4 21,1 29,-5 11,-9 18,-8 30,5 19,18 46,12 46,-10 0,-10 6,-13 18,-9 14,5 15,3 5,-8 -15,-16 -17,-33 -3,-24 6,3 10,2 10,-4 0,-5 -6,-11 -12,-14 -7,-2 -10,-8 -6,-12 4,-4 14,-2 23,5 17,14 50,6 40,-10 -4,-6 7,-15 24,-21 33,-12 41,-33 17,-42 -25,-10 -49,-67 -38,-91 5,-11 7,-32 6,-46 -5,-38 9,-55 34,-41 11,6 37,11 57,11 31,0 40,6 67,44 29,42 58,52 58,20 0,-8 6,-11 17,-7 12,5 15,2 10,-10 -3,-9 -2,-17 4,-17 6,0 8,-4 5,-9 -3,-5 3,-11 14,-14 10,-3 20,-1 22,5 6,16 40,-4 35,-21 -2,-9 1,-22 7,-28 6,-7 17,-19 24,-28 7,-8 18,-15 25,-15 8,0 8,3 -1,9 -10,6 -6,11 17,19 36,13 91,-2 91,-24 0,-8 5,-14 10,-14 6,0 10,4 10,9 0,4 12,8 28,7 16,-1 26,-6 24,-13 -1,-7 5,-13 13,-13 8,0 15,5 15,10 0,9 37,8 60,0 3,-1 17,-1 32,0 40,2 43,-18 9,-51 -28,-27 -36,-40 -32,-61 0,-5 -6,-8 -14,-8 -13,0 -14,-4 -5,-21 9,-17 8,-25 -7,-41 -16,-18 -16,-21 -2,-31 21,-16 33,-55 22,-70 -18,-23 -9,-42 20,-42 15,-1 35,-8 45,-16 9,-8 34,-22 55,-32 24,-12 37,-25 37,-37 0,-11 14,-34 32,-50 l 32,-31 22,28 c 13,15 23,40 24,54 0,24 26,59 44,59 5,0 17,11 27,24 11,14 29,26 42,28 16,2 21,9 19,23 -2,11 -3,34 -2,50 4,67 -2,108 -20,129 -7,9 -9,16 -4,16 4,0 -8,14 -27,30 -28,26 -31,33 -19,41 8,5 23,7 32,5 10,-2 20,-1 23,3 2,5 18,8 35,9 16,0 46,6 65,13 27,10 38,10 47,1 7,-7 19,-12 27,-12 8,0 12,3 8,6 -8,8 25,44 35,38 4,-3 8,0 8,5 0,17 30,13 36,-4 4,-8 17,-15 29,-15 13,0 27,-5 30,-10 3,-5 11,-10 16,-10 6,0 8,4 4,9 -8,15 12,93 27,103 7,5 27,7 44,6 27,-3 30,-1 26,21 -3,15 -1,22 5,18 6,-4 21,7 34,23 13,16 26,30 29,30 3,0 13,-15 23,-32 10,-18 31,-41 47,-50 26,-15 34,-15 62,-4 17,8 48,11 69,9 l 38,-6 -10,34 c -5,19 -10,50 -11,69 -1,35 -32,74 -69,85 -23,8 -25,33 -4,41 8,4 15,11 15,18 0,16 56,76 71,76 6,0 9,8 6,20 -3,11 1,27 10,35 8,8 12,18 9,23 -2,4 -1,14 4,22 7,12 15,13 38,4 25,-10 32,-8 61,18 l 32,29 -21,33 c -11,19 -29,36 -41,39 -17,5 -19,11 -14,39 4,18 7,47 6,65 -1,22 4,33 17,37 9,3 23,16 31,27 11,19 11,23 0,30 -35,19 -47,37 -53,72 -4,23 -3,37 4,37 18,0 11,29 -10,40 -14,8 -20,21 -20,45 0,19 -5,35 -10,35 -6,0 -15,10 -20,23 -15,34 -33,60 -55,78 -11,9 -37,32 -58,51 l -39,34 60,49 c 33,28 70,69 82,92 11,24 25,45 31,48 5,4 9,19 9,35 0,19 8,34 22,45 20,13 21,18 10,35 -8,14 -9,26 -3,38 9,17 11,24 11,40 0,5 11,15 25,22 31,17 31,21 -2,55 -16,15 -29,39 -30,54 -1,14 -5,41 -9,59 -5,28 -3,34 14,39 12,3 30,21 42,40 17,30 18,36 6,49 -8,8 -19,14 -24,14 -6,0 -13,7 -16,15 -5,14 -9,14 -35,1 -26,-14 -30,-14 -45,3 -14,15 -14,20 -4,24 10,4 8,9 -5,17 -13,9 -17,19 -13,36 5,19 1,27 -19,36 -13,6 -27,19 -30,30 -4,10 -11,18 -16,18 -5,0 -9,5 -9,11 0,7 -8,18 -17,25 -19,15 -21,13 54,72 15,12 22,28 23,52 0,19 4,50 9,67 l 9,32 -55,-1 c -38,-1 -57,3 -63,13 -8,11 -13,12 -30,2 -11,-7 -25,-13 -32,-13 -13,0 -38,-44 -38,-67 0,-7 -7,-13 -15,-13 -8,0 -15,5 -15,10 0,6 -7,10 -15,10 -8,0 -14,5 -12,12 1,7 -5,12 -13,13 -8,0 -16,9 -19,20 -4,26 -21,36 -42,25 -22,-12 -54,22 -46,50 3,11 1,23 -5,26 -5,3 -8,15 -5,25 5,20 -7,26 -18,9 -3,-5 -17,-10 -31,-10 -15,0 -24,-6 -24,-15 0,-34 -69,-4 -82,36 -4,11 -10,11 -36,0 -24,-10 -35,-11 -46,-2 -7,6 -33,13 -57,15 -24,2 -46,5 -49,6 -3,1 -12,2 -20,1 -8,0 -22,4 -30,9 -13,9 -12,13 8,27 29,20 28,44 -3,73 -19,18 -38,23 -97,27 -40,3 -79,6 -87,9 -22,7 4,30 85,75 41,22 79,49 84,59 15,27 12,70 -3,70 -20,0 -47,33 -47,59 0,20 -37,81 -49,81 -3,0 -18,-14 -33,-30 z M 2000,4378 c 25,-6 81,-16 125,-22 79,-11 80,-12 98,-49 10,-20 39,-53 63,-73 44,-36 44,-36 44,-103 0,-50 6,-80 26,-121 23,-50 24,-59 15,-117 -7,-47 -18,-74 -41,-103 -18,-22 -37,-40 -43,-40 -16,0 -57,-41 -57,-57 0,-16 -58,-43 -93,-43 -13,0 -33,-9 -45,-20 -26,-25 -116,-28 -148,-5 -29,20 -81,27 -104,15 -17,-9 -23,-4 -45,41 -16,30 -38,57 -57,67 -68,38 -76,54 -125,250 -3,13 5,42 21,75 14,28 33,85 41,125 16,77 43,139 71,163 14,12 78,21 184,27 14,1 45,-4 70,-10 z m 507,-480 c -3,-7 -5,-2 -5,12 0,14 2,19 5,13 2,-7 2,-19 0,-25 z m 2217,-603 c 3,-8 1,-15 -4,-15 -6,0 -10,7 -10,15 0,8 2,15 4,15 2,0 6,-7 10,-15 z"
           id="path182" />
        <path
           d="m 2890,5070 c 0,-5 5,-10 11,-10 5,0 7,5 4,10 -3,6 -8,10 -11,10 -2,0 -4,-4 -4,-10 z"
           id="path184" />
      </g>
      <rect
         style="fill:#ffffff;fill-opacity:0;stroke:#000000;stroke-width:7.01679;stroke-miterlimit:4;stroke-dasharray:none;stroke-dashoffset:0;stroke-opacity:1"
         id="rect201"
         width="1279.5663"
         height="636.5564"
         x="-127.60966"
         y="118.82767" />
      <path
         style="fill:#a0a0a0;stroke:none;stroke-width:0.649155"
         d="m 166.88513,249.76857 c -0.74245,-1.25836 -2.44838,-2.77613 -3.90427,-3.47362 -2.09928,-1.00574 -2.60795,-1.60508 -2.70415,-3.18622 -0.23826,-3.91618 -0.21415,-5.20008 0.10359,-5.51782 0.83307,-0.83307 2.68676,-4.67034 2.3964,-4.9607 -0.1797,-0.1797 -2.1741,-0.46999 -4.43202,-0.6451 -2.2579,-0.17511 -4.2904,-0.61791 -4.51666,-0.98401 -0.22626,-0.3661 -1.54667,-0.56688 -2.93424,-0.44618 -2.20134,0.19147 -2.54929,0.0333 -2.73029,-1.24095 -0.13461,-0.94766 -0.65457,-1.46039 -1.48098,-1.46039 -0.70044,0 -1.43741,-0.42706 -1.63771,-0.94902 -0.68598,-1.78765 -2.8071,-1.8656 -4.15448,-0.15269 -0.69217,0.87995 -2.11105,1.72504 -3.15307,1.87797 -1.73152,0.25414 -1.92604,0.0842 -2.26019,-1.97493 -0.2389,-1.4722 -0.006,-2.86173 0.67201,-4.00953 0.97871,-1.65684 0.95892,-1.83522 -0.34869,-3.14284 -0.76247,-0.76246 -1.60915,-1.38629 -1.88152,-1.38629 -0.27237,0 -0.78562,-0.65727 -1.14054,-1.4606 -0.52993,-1.19942 -1.07982,-1.42656 -3.07514,-1.27022 -2.59232,0.20312 -2.79672,-0.11456 -1.78533,-2.77472 0.74627,-1.96284 -0.54931,-4.53488 -2.54751,-5.05743 -0.914,-0.23901 -1.11264,-0.7346 -0.84843,-2.11674 0.22519,-1.17797 0.008,-2.05122 -0.62582,-2.51464 -0.53395,-0.39048 -1.17887,-2.09753 -1.43316,-3.79345 -0.2543,-1.69592 -0.75382,-3.08349 -1.11005,-3.08349 -0.35623,0 -0.49694,-0.24392 -0.31269,-0.54205 0.18425,-0.29812 0.0663,-1.53963 -0.26223,-2.75891 -0.32848,-1.21927 -0.76735,-3.31231 -0.97526,-4.6512 -0.4433,-2.85465 -1.11208,-3.08622 -2.1751,-0.75315 -1.44339,3.16788 -4.93918,8.05615 -5.76127,8.05615 -0.45202,0 -0.82185,0.26607 -0.82185,0.59125 0,0.81821 -5.28698,3.30369 -7.02744,3.30369 -0.78336,0 -1.91975,0.57865 -2.52532,1.28591 -1.06394,1.24259 -1.14572,1.24642 -2.427975,0.11366 -0.729822,-0.64474 -2.598214,-1.57209 -4.151984,-2.06079 -2.539891,-0.79886 -2.886688,-0.77838 -3.435867,0.20295 -0.335959,0.60033 -1.185324,1.39896 -1.887478,1.77474 -1.084265,0.58028 -1.377178,0.41882 -1.943789,-1.07148 -0.458524,-1.20601 -0.456606,-1.96526 0.0062,-2.428 1.062437,-1.06247 0.789133,-2.23681 -0.625064,-2.68566 -0.714071,-0.22664 -1.298311,-0.85791 -1.298311,-1.40283 0,-0.54492 -0.580954,-1.14268 -1.291009,-1.32837 -0.710056,-0.18568 -1.137187,-0.5865 -0.949182,-0.89069 0.188005,-0.3042 -0.25346,-1.71995 -0.981034,-3.14612 -0.727575,-1.42616 -1.322863,-3.22295 -1.322863,-3.99287 0,-1.16714 -0.269791,-1.33331 -1.622889,-0.9996 -0.892588,0.22014 -2.37114,0.58381 -3.28567,0.80814 -1.358025,0.33312 -2.071894,-0.0388 -3.894933,-2.02906 -2.316787,-2.52934 -2.862928,-4.22122 -1.362617,-4.22122 0.478244,0 1.18518,-0.69277 1.57097,-1.53948 0.914998,-2.00821 3.65816,-2.70426 5.519493,-1.40053 1.932908,1.35386 3.075646,1.24586 3.075646,-0.29068 0,-2.02955 2.836021,-8.45221 3.732644,-8.4532 0.446294,-5e-4 0.811444,-0.31923 0.811444,-0.7083 0,-0.38906 0.65727,-1.2464 1.4606,-1.90519 1.268953,-1.04063 1.352182,-1.37566 0.634318,-2.55333 -1.200551,-1.96954 -0.05172,-3.84802 2.101607,-3.43639 0.905231,0.17305 1.645875,0.71876 1.645875,1.21269 0,1.02866 2.317256,1.2261 2.921199,0.2489 0.220661,-0.35703 1.078492,-0.64915 1.906292,-0.64915 0.827801,0 1.868749,-0.43818 2.313219,-0.97374 1.035143,-1.24727 2.352748,-1.24727 2.831368,0 0.22179,0.57798 1.1978,0.97374 2.4014,0.97374 1.11525,0 2.76542,0.58026 3.66703,1.28946 0.90161,0.70921 1.89707,1.13015 2.21214,0.93542 0.31507,-0.19472 0.57286,0.10138 0.57286,0.658 0,0.55663 0.38726,1.01205 0.86057,1.01205 1.1743,0 3.14836,2.2823 5.33409,6.16698 2.20836,3.92487 2.16481,3.86629 2.57144,3.45966 0.30525,-0.30526 1.68043,-6.79248 1.90548,-8.9889 0.0555,-0.54183 0.32345,-1.34516 0.59539,-1.78518 0.27195,-0.44001 0.32087,-0.80003 0.10872,-0.80003 -0.21215,0 -0.0235,-0.65727 0.41928,-1.4606 0.44275,-0.80333 0.73287,-1.93585 0.64472,-2.5167 -0.0881,-0.58086 0.32579,-1.24263 0.91987,-1.4706 0.80268,-0.30802 0.98247,-0.90287 0.69991,-2.31567 -0.30396,-1.5198 -0.12104,-1.98344 0.91189,-2.31128 2.17623,-0.69071 3.35102,-3.08882 2.54793,-5.20111 -0.76862,-2.0216 0.12007,-3.13838 2.02621,-2.54627 1.6023,0.49772 3.17494,-0.35517 3.17494,-1.72188 0,-0.67588 0.30433,-1.22886 0.6763,-1.22886 0.37196,0 1.3085,-0.58899 2.0812,-1.30886 1.32633,-1.23568 1.34721,-1.4081 0.37335,-3.08349 -0.62923,-1.08252 -0.90583,-2.59744 -0.70921,-3.88439 0.25987,-1.70083 0.62261,-2.10975 1.87155,-2.10975 1.55369,0 4.14583,2.02939 4.14583,3.24578 0,0.35703 0.43818,0.64915 0.97373,0.64915 0.53556,0 0.97374,-0.29212 0.97374,-0.64915 0,-0.35704 0.43818,-0.64916 0.97373,-0.64916 0.53555,0 0.97373,-0.42901 0.97373,-0.95336 0,-0.57677 0.38108,-0.80713 0.96471,-0.58316 0.63722,0.24452 1.19146,-0.2262 1.63265,-1.38661 0.5527,-1.4537 0.94675,-1.68683 2.28394,-1.35122 1.00737,0.25284 2.22613,0.006 3.23602,-0.65589 1.14816,-0.75231 1.62002,-0.8275 1.62002,-0.25818 0,0.60202 0.22027,0.62049 0.87911,0.0737 0.48353,-0.40129 2.10285,-0.77756 3.5985,-0.83616 3.36111,-0.13171 3.75285,-0.69522 2.09845,-3.01862 -1.27105,-1.78502 -1.73769,-4.35774 -1.49332,-8.23312 0.10357,-1.64261 0.58337,-2.14997 3.06503,-3.24108 1.8822,-0.82755 3.07233,-1.81195 3.30332,-2.73229 0.1986,-0.79126 0.77058,-1.77851 1.27106,-2.19388 0.73774,-0.61226 1.10701,-0.28366 1.95091,1.73607 0.57251,1.37021 1.46479,2.80123 1.98286,3.18005 1.45702,1.0654 0.42188,2.69228 -3.08661,4.85107 -4.15392,2.55594 -4.12642,3.66203 0.10116,4.06825 4.00683,0.385 5.14147,1.27943 3.98076,3.13802 -0.44944,0.71968 -0.66792,1.55 -0.48551,1.84516 0.33747,0.54604 5.39058,1.44216 7.92032,1.4046 0.76553,-0.0114 1.75069,0.41167 2.18924,0.9401 0.8981,1.08215 3.23502,1.30726 3.23502,0.31162 0,-1.60758 1.96442,-0.44049 2.45678,1.45961 0.331,1.27735 1.02756,2.20141 1.76673,2.34377 0.67116,0.12925 1.76937,0.93303 2.44044,1.78617 1.22991,1.56356 3.07339,2.1046 3.07339,0.902 0,-1.68544 2.37365,-2.97677 5.00965,-2.72539 l 2.67803,0.2554 -0.35783,2.37102 c -0.19681,1.30406 -1.05018,3.1173 -1.89638,4.02943 -1.96596,2.11912 -1.93775,2.48384 0.38919,5.0315 1.06025,1.16083 2.01704,2.75956 2.12619,3.55274 0.3013,2.18941 1.12813,3.15608 2.36403,2.76382 0.61349,-0.19472 1.63974,0.0293 2.28054,0.49791 1.10304,0.80657 1.07752,0.95604 -0.4792,2.80609 -1.4182,1.68544 -1.56961,2.28535 -1.10108,4.36275 0.29878,1.32473 0.89326,2.83036 1.32106,3.34584 0.61443,0.74034 0.55974,1.15533 -0.26036,1.97543 -0.57101,0.57101 -1.0382,1.89765 -1.0382,2.9481 0,1.05045 -0.25041,2.41716 -0.55646,3.03712 -2.28456,4.62777 -3.16536,5.98392 -5.40839,8.32719 l -2.54228,2.65589 2.30679,1.75947 c 3.18685,2.43074 6.16837,8.28806 6.19056,12.16165 0.005,0.93813 0.45533,2.07546 0.99989,2.52741 0.86232,0.71565 0.86974,0.95633 0.0575,1.86466 -1.56548,1.75067 -1.50753,5.44671 0.11777,7.51295 1.10158,1.40043 1.26669,2.03426 0.70593,2.70994 -0.98464,1.18638 -3.16964,1.12312 -3.16964,-0.0918 0,-0.53555 -0.25449,-0.97373 -0.56553,-0.97373 -0.31103,0 -0.75545,1.43174 -0.98758,3.18164 -0.23213,1.7499 -0.7898,3.32275 -1.23926,3.49523 -0.44946,0.17247 -1.37568,1.3506 -2.05825,2.61807 l -1.24104,2.30448 1.48473,1.20227 c 0.86879,0.7035 1.68779,2.31263 1.97417,3.87877 l 0.48944,2.67651 -2.6543,0.25313 c -2.27058,0.21653 -2.90335,-0.0195 -4.3771,-1.63311 l -1.7228,-1.88623 -1.36738,1.36738 c -0.75205,0.75205 -1.36737,1.65949 -1.36737,2.01652 0,0.35704 -0.70709,0.64916 -1.5713,0.64916 -1.21809,0 -1.66747,0.43779 -1.99905,1.94746 -0.47152,2.14683 -0.98882,2.34454 -2.97229,1.13603 -1.14568,-0.69806 -1.49603,-0.6112 -2.50723,0.62155 -0.64649,0.78814 -1.34463,1.2638 -1.55142,1.05701 -0.40065,-0.40066 -8.87337,1.03612 -8.87337,1.50471 0,0.15255 0.62532,1.12315 1.3896,2.1569 0.81698,1.10502 1.52084,3.24536 1.70808,5.19405 0.31041,3.23046 0.25047,3.37273 -2.36333,5.61005 -1.475,1.26254 -2.68182,2.82124 -2.68182,3.46378 0,0.64253 -0.43062,1.52562 -0.95694,1.96243 -0.79286,0.65801 -1.18306,0.41097 -2.27556,-1.44067 z m -63.27348,-55.59266 c 0.33919,-0.3139 1.71215,-0.92079 3.05103,-1.34865 1.33889,-0.42785 2.43434,-1.0009 2.43434,-1.27343 0,-0.27253 1.11948,-1.63755 2.48774,-3.03338 3.04982,-3.11129 3.82101,-6.57021 2.37722,-10.66233 -0.53352,-1.51215 -0.97003,-3.76953 -0.97003,-5.01639 0,-1.53057 -0.57992,-2.95012 -1.78518,-4.36981 -0.98185,-1.15654 -2.25158,-2.67974 -2.82164,-3.38491 -1.33498,-1.65138 -9.583165,-3.12321 -14.60062,-2.60536 -4.273897,0.4411 -4.934124,1.12146 -6.427434,6.62336 -0.581433,2.14221 -1.46747,4.96976 -1.96897,6.28345 -0.787973,2.0641 -0.782009,2.88687 0.04391,6.05779 1.19857,4.60162 1.941017,5.98951 4.237998,7.92229 1.006727,0.84711 2.011772,2.11161 2.233433,2.81 0.287745,0.9066 0.99395,1.27264 2.469029,1.27974 1.136305,0.005 2.50419,0.29311 3.039743,0.63921 1.220343,0.78865 5.375221,0.8412 6.199431,0.0784 z m 16.52101,-12.08779 c 0,-0.53556 -0.29212,-0.97374 -0.64916,-0.97374 -0.35703,0 -0.64915,0.43818 -0.64915,0.97374 0,0.53555 0.29212,0.97373 0.64915,0.97373 0.35704,0 0.64916,-0.43818 0.64916,-0.97373 z"
         id="path2185"
         transform="matrix(3.1347401,0,0,3.5087962,-246.08802,-172.92735)" />
      <path
         style="fill:#a0a0a0;stroke:none;stroke-width:0.649155"
         d="m 240.64043,231.58622 c -0.21027,-9.37218 -0.52314,-41.94356 -0.69526,-72.38083 l -0.31295,-55.34051 h 2.13803 2.13804 l 0.43111,41.97759 c 0.23711,23.08768 0.43111,55.65906 0.43111,72.38084 v 30.40324 h -1.87388 -1.87388 z"
         id="path2187"
         transform="matrix(3.1347401,0,0,3.5087962,-246.08802,-172.92735)" />
      <path
         style="fill:#a0a0a0;stroke:none;stroke-width:0.649155"
         d="m 38.654614,173.97367 c 0,-49.44942 0.07706,-69.67872 0.171249,-44.95401 0.09419,24.72471 0.09419,65.18332 0,89.90803 -0.09419,24.72471 -0.171249,4.4954 -0.171249,-44.95402 z"
         id="path2189"
         transform="matrix(3.1347401,0,0,3.5087962,-246.08802,-172.92735)" />
      <path
         style="fill:#a0a0a0;stroke:none;stroke-width:0.649155"
         d="m 38.533598,167.48212 c 0,-1.9637 0.121694,-2.76703 0.270432,-1.78518 0.148737,0.98185 0.148737,2.58851 0,3.57036 -0.148738,0.98184 -0.270432,0.17851 -0.270432,-1.78518 z"
         id="path2191"
         transform="matrix(3.1347401,0,0,3.5087962,-246.08802,-172.92735)" />
      <path
         style="fill:#a0a0a0;stroke:none;stroke-width:0.649155"
         d=""
         id="path2193"
         transform="matrix(3.1347401,0,0,3.5087962,-246.08802,-172.92735)" />
      <path
         style="fill:#a0a0a0;stroke:none;stroke-width:0.649155"
         d="M 37.040758,173.97367 V 82.44275 H 241.84931 446.65787 v 91.53092 91.53093 H 241.84931 37.040758 Z m 408.158792,-0.16229 0.16456,-90.070319 H 241.85159 38.339069 V 173.5409 c 0,49.38992 0.195208,89.99505 0.433794,90.23364 0.238587,0.23858 91.745167,0.3603 203.347957,0.27048 l 202.91416,-0.16331 z"
         id="path2195"
         transform="matrix(3.1347401,0,0,3.5087962,-246.08802,-172.92735)" />
    </g>
  </g>
</svg>
